<svg version="1.1" id="Layer_1" xmlns="http://www.w3.org/2000/svg" x="0" y="0" viewBox="0 0 1366 768" xml:space="preserve"><style>.st1{fill:#c88648}</style><path id="Rectangle_24" fill="#c16f2b" d="M0 0h1366v768H0z"/><path class="st1" d="M757.262 0l113.317 423.688L806.499 0zM1366 0h-55.074L870.579 423.688 1366 56.712z"/><path class="st1" d="M847.277 0l23.302 423.688L893.884 0z"/><path class="st1" d="M934.66 0l-64.081 423.688L983.898 0zm210.93 0L870.579 423.688 1225.233 0zm-116.12 0L870.579 423.688 1087.895 0zM0 0v68.256l870.579 355.432L136.278 0zm0 312.287l870.579 111.401L0 184.677zm0 231.349l870.579-119.948L0 419.458zm1366-405.807L870.579 423.688 1366 221.427zM515.928 0l354.651 423.688L595.565 0zm-217.33 0l571.981 423.688L430.219 0z"/><path class="st1" d="M653.272 0l217.307 423.688L711.686 0zm44.155 768l173.152-344.312L643.075 768zm83.882 0l89.27-344.312L738.392 768zm72.927 0l16.343-344.312L815.841 768zm71.087 0l-54.744-344.312L886.925 768zm-338.067 0l283.323-344.312L506.469 768zm283.323-344.312L0 653.788V768h49.314zM414.313 768l456.266-344.312L261.015 768zm588.454 0L870.579 423.688 959.855 768zM1366 768v-64.48L870.579 423.688 1326.856 768zm0-213.376L870.579 423.688 1366 631.396z"/><path class="st1" d="M1366 421.277l-495.421 2.411L1366 491.95zm0-133.607L870.579 423.688 1366 360.293zM1098.093 768L870.579 423.688 1043.737 768z"/><path class="st1" d="M1234.699 768l-364.12-344.312L1153.911 768z"/></svg>