<svg version="1.1" id="Layer_1" xmlns="http://www.w3.org/2000/svg" x="0" y="0" viewBox="0 0 1366 768" xml:space="preserve"><style>.st1{opacity:.3;fill:#d6ba8b;enable-background:new}</style><path id="Rectangle_12" fill="#c16f2b" d="M0 0h1366v768H0z"/><path class="st1" d="M994.743 768l-29.51-185.608L974.045 768zm-77.633 0l48.123-185.608L893.976 768z"/><path class="st1" d="M1366 688.313L965.233 582.392 1366 750.417z"/><path class="st1" d="M871.892 768l93.341-185.608L842.593 768zm-59.389 0l152.73-185.608L768.954 768z"/><path class="st1" d="M1036.491 768l-71.258-185.608L1013.359 768zm125.027 0L965.233 582.392 1117.969 768zm132.317 0L965.233 582.392 1211.197 768zm-205.957 0L965.233 582.392 1058.577 768zm-131.455 0l8.81-185.608L935.726 768zM666.525 0l298.708 582.392L746.821 0zM178.988 0l786.245 582.392L359.918 0zm298.746 0l487.499 582.392L587.203 0z"/><path class="st1" d="M1366 285.532V196.79L965.239 582.387h-.001L1366 103.616V0h-22.741L965.237 582.387h-.001L1263.952 0h-80.31L965.235 582.387 1121 0h-67.683l-88.083 582.387h-.001L997.268 0h-64.065l32.03 582.392v-.005h.001l-.001.005.002-.005-.002.005.003-.005-.003.005.004-.005h.001l-.005.005.006-.005.002.001-.008.004.01-.004h.003l-.013.004.02-.003L1366 637.607v-57.166l-400.723 1.945L1366 531.112v-58.748L965.253 582.386l-.006.001L1366 418.777v-67.626L965.243 582.387h-.003z"/><path class="st1" d="M809.469 0l155.764 582.392L877.149 0zM0 458.887l965.233 123.505L0 317.402zM522.523 768l442.71-185.608L262.984 768z"/><path class="st1" d="M0 715.386l965.233-132.994L0 577.706z"/><path class="st1" d="M0 188.324l965.233 394.068L0 25.467zM719.276 768l245.957-185.608L636.642 768z"/></svg>