<svg version="1.1" id="Layer_1" xmlns="http://www.w3.org/2000/svg" x="0" y="0" viewBox="0 0 1366 54.919" xml:space="preserve"><style>.st0{fill:#fbb615}</style><path id="Rectangle_23" class="st0" d="M0 12.934h1365.5v41.985H0z"/><path fill="#fdc035" d="M1311.557 54.919l-44.969-41.841H701.442l-44.97 41.841z"/><path class="st0" d="M980.464 13.06l-2.884 41.859h14.282l-2.833-41.859zm-206.156 0l-36.896 41.859h46.479l30.783-41.859zm95.827 0L844.09 54.919h32.759l20.042-41.859zm78.908 0l-14.969 41.859h18.801l9-41.859zm204.313 0l30.783 41.859h46.479l-36.896-41.859zm-80.514 0l19.984 41.859h32.758l-25.987-41.859zm-63.281 0l8.882 41.859h18.287l-14.869-41.859z"/><path fill="#6c0202" d="M1366 0H.5v17.993h695.464l-41.203 36.926h21.404l40.083-36.926h535.536l40.083 36.926h21.404l-41.202-36.926H1366z"/></svg>