<svg version="1.1" id="Layer_1" xmlns="http://www.w3.org/2000/svg" x="0" y="0" viewBox="0 0 663.545 677.228" xml:space="preserve"><style>.st2{fill:#f4e4bc}.st3{fill:#caa678}.st4{fill:#d0241b}.st5,.st7{opacity:.75;fill:#fff;enable-background:new}.st7{opacity:.5;fill:#f3a49d}.st8{fill:#1f1513}.st9{fill:#772122}</style><g id="Group_39" transform="translate(-646.409 -93.377)"><g id="Rectangle_14"><path d="M150 0h264.132c82.843 0 150 67.157 150 150v252.868H0V150C0 67.157 67.157 0 150 0z" fill="#343434" transform="translate(690.95 329.252)"/><path d="M564.132 402.868H0V150C0 67.29 67.29 0 150 0h264.132c82.71 0 150 67.29 150 150v252.868zM18 384.868h528.132V150c0-72.785-59.215-132-132-132H150C77.215 18 18 77.215 18 150v234.868z" fill="#fed9a3" transform="translate(690.95 329.252)"/></g><g id="Group_12" transform="translate(646.409 93.377)"><g id="Bowling_Pins"><g id="Bowling_Pin_5" transform="translate(330.25 197.783)"><g id="Group_7" transform="translate(0 .005)"><path id="Path_36" class="st2" d="M243.245 135.714c28.753-32.654 43.955-35.993 74.917-71.159s4.82-57.072 4.82-57.072-25.036-23.159-56 12.007-32.349 50.669-61.1 83.325-80.432 21.712-131.3 79.485S.007 320.65.007 320.65s-.98 11.4 20.528 30.338 32.692 16.524 32.692 16.524 76.927-33.719 127.8-91.492 33.467-107.651 62.218-140.306z"/></g><path id="Path_37" class="st3" d="M177.072 237.946c-6.886 24.4-16.915 47.815-27.8 68.861-46.031 38.8-96.037 60.714-96.037 60.714s-11.192 2.406-32.7-16.526a87.47 87.47 0 01-14.723-16.061c-.5-8.632-.853-18.35-.912-28.825 9.292-25.838 32.045-81.062 69.676-123.815 36.138-41.025 72.683-47.407 101.12-59.336 7.02 30.337 15.284 65.679 1.376 114.988z"/><path id="Path_38" class="st4" d="M286.377 95.656c-5.5 4.655-10.791 8.895-16.247 13.571l-41.379-36.435c3.947-6 7.484-11.787 11.394-17.841l46.232 40.705z"/><path id="Path_39" class="st4" d="M200.551 108.164a61.877 61.877 0 005.325-5.344 277.937 277.937 0 008.614-10.258l37.839 33.316a275.375 275.375 0 00-9.086 9.844 61.699 61.699 0 00-4.628 5.959l-38.064-33.517z"/><path id="Path_40" class="st5" d="M332.563 24.436a30.832 30.832 0 00-6.673-8.864s-25.042-23.161-56 12.007-32.355 50.667-61.1 83.313c-28.747 32.666-80.422 21.726-131.3 79.492C26.629 248.169 2.926 328.727 2.926 328.727a6.77 6.77 0 00.136 1.668c-3.336-6.266-3.046-9.738-3.046-9.738s23.7-80.577 74.564-138.363c50.88-57.766 102.555-46.825 131.3-79.472 28.747-32.665 30.144-48.164 61.1-83.332s56-12.007 56-12.007a32.494 32.494 0 019.583 16.953z"/></g><g id="Bowling_Pin_4" transform="translate(0 197.787)"><g id="Group_8"><path id="Path_41" class="st2" d="M90.051 135.714C61.298 103.06 46.098 99.721 15.134 64.555s-4.82-57.072-4.82-57.072 25.036-23.159 56 12.007 32.349 50.669 61.1 83.325 80.432 21.712 131.3 79.485 74.572 138.35 74.572 138.35.979 11.4-20.529 30.338-32.693 16.524-32.693 16.524-76.925-33.719-127.8-91.492-33.462-107.651-62.213-140.306z"/></g><path id="Path_42" class="st4" d="M46.916 95.652c5.5 4.655 10.791 8.895 16.247 13.571l41.381-36.435c-3.949-6-7.486-11.787-11.4-17.841L46.916 95.652z"/><path id="Path_43" class="st4" d="M132.745 108.158a62.02 62.02 0 01-5.325-5.344 276.875 276.875 0 01-8.613-10.258l-37.839 33.316a276.347 276.347 0 019.084 9.844 61.699 61.699 0 014.628 5.959l38.065-33.517z"/></g><g id="Bowling_Pin_3" transform="translate(325.43 63.524)"><g id="Group_9" transform="translate(0 .008)"><path id="Path_44" class="st2" d="M166.895 175.515c13.718-48.657 27.97-59.791 42.743-112.19S186.017 1.112 186.017 1.112s-37.866-11.687-52.639 40.712-8.438 69.338-22.158 117.993-73.359 63.155-97.632 149.239S4.96 491.469 4.96 491.469s4.7 12.436 36.749 21.473 42.552.887 42.552.887 63.657-73.971 87.929-160.056-19.013-129.601-5.295-178.258z"/></g><path id="Path_45" class="st3" d="M110.838 332.245c0 78.057-28.282 155.452-40.347 184.917-6.634.272-15.984-.6-28.786-4.208C9.66 503.914 4.966 491.48 4.966 491.48s-15.654-96.328 8.632-182.415c14.024-49.775 39.881-75.612 61.839-97.938 16.469 30.007 35.401 65.059 35.401 121.118z"/><path id="Path_46" class="st4" d="M191.958 111.884c-3.426 7.638-6.835 14.738-10.2 22.379L120.1 116.879c1.121-8.273 1.922-16.11 2.976-24.418l68.882 19.423z"/><path id="Path_47" class="st4" d="M108.322 168.104a72.057 72.057 0 002.892-8.275 318.908 318.908 0 003.872-15.074l56.381 15.9a323.02 323.02 0 00-4.574 14.875 71.843 71.843 0 00-1.854 8.569l-56.717-15.995z"/><path id="Path_48" class="st5" d="M201.308 10.343a32.843 32.843 0 00-7.7-3.414s-37.864-11.677-52.626 40.716c-14.781 52.412-8.438 69.346-22.172 118-13.714 48.668-73.361 63.158-97.628 149.244S12.55 497.304 12.55 497.304a17.224 17.224 0 004 5.237c-9.679-6.013-11.58-11.056-11.58-11.056s-15.654-96.328 8.632-182.415c24.266-86.086 83.914-100.576 97.628-149.245 13.714-48.649 7.371-65.583 22.152-118 14.781-52.393 52.645-40.716 52.645-40.716a37.347 37.347 0 0115.281 9.234z"/></g><g id="Bowling_Pin_2" transform="translate(125.094 63.528)"><g id="Group_10" transform="translate(0 .003)"><path id="Path_49" class="st2" d="M46.126 175.515c-13.718-48.657-27.969-59.791-42.743-112.19s23.62-62.214 23.62-62.214 37.866-11.687 52.639 40.712 8.438 69.338 22.158 117.993 73.36 63.155 97.632 149.239 8.628 182.413 8.628 182.413-4.7 12.436-36.749 21.473-42.553.887-42.553.887-63.657-73.971-87.929-160.056 19.015-129.6 5.297-178.257z"/></g><path id="Path_50" class="st4" d="M21.062 111.879c3.426 7.638 6.838 14.738 10.2 22.379l61.659-17.384c-1.121-8.273-1.92-16.11-2.976-24.418l-68.883 19.423z"/><path id="Path_51" class="st4" d="M104.701 168.099a71.622 71.622 0 01-2.894-8.275 321.37 321.37 0 01-3.872-15.074l-56.381 15.9c1.531 4.568 3.057 9.5 4.574 14.875a71.843 71.843 0 011.854 8.569l56.719-15.995z"/><path id="Path_52" class="st5" d="M142.434 517.158c-9.893-.407-13.675-3.336-13.675-3.336s-63.66-73.958-87.929-160.049 19.01-129.6 5.3-178.264C32.416 126.86 18.159 115.726 3.397 63.333-11.384 10.921 27.004 1.105 27.004 1.105A37.085 37.085 0 0143.279.679a34.318 34.318 0 00-10.13 1.085S-5.239 11.579 9.523 63.972c14.781 52.393 29.019 63.527 42.752 112.2 13.714 48.649-29.581 92.177-5.3 178.264 24.266 86.068 87.929 160.049 87.929 160.049s2.177 1.684 7.53 2.673z"/></g><g id="Bowling_Pin_1" transform="translate(240.362)"><g id="Group_11" transform="translate(0 .006)"><path id="Path_53" class="st2" d="M123.498 191.989c0-56.086 11.863-72.265 11.863-132.665S91.41.002 91.41.002 47.457-1.076 47.457 59.324s11.864 76.579 11.864 132.665S-.001 281.511-.001 380.739s45.7 197.379 45.7 197.379 8.764 11.866 45.706 11.866 45.7-11.866 45.7-11.866 45.7-98.15 45.7-197.379-59.307-132.664-59.307-188.75z"/></g><path id="Path_54" class="st4" d="M131.102 116.494c-1.36 9.188-2.865 17.8-4.159 26.97H55.87c-1.294-9.172-2.8-17.782-4.174-26.97h79.406z"/><path id="Path_55" class="st4" d="M58.719 201.707c.397-3.221.597-6.463.6-9.708 0-6.2-.146-11.922-.405-17.262h64.99a357.35 357.35 0 00-.4 17.262c.003 3.245.203 6.487.6 9.708H58.719z"/><path id="Path_56" class="st5" d="M105.591 2.95c-1.009-.059-1.571-.039-1.571-.039S60.065 1.844 60.065 62.229c0 60.4 11.871 76.581 11.871 132.68 0 56.078-59.318 89.519-59.318 188.738 0 99.237 45.7 197.39 45.7 197.39s3.123 4.229 13.462 7.624c-20.581-3.1-26.07-10.533-26.07-10.533S.01 479.976.01 380.738c0-99.219 59.318-132.66 59.318-188.738 0-56.1-11.871-72.275-11.871-132.679C47.457-1.064 91.412.003 91.412.003a39.942 39.942 0 0114.179 2.947z"/></g></g><g id="Bowling_Ball" transform="translate(65.35 208.663)"><ellipse id="Ellipse_1" cx="272.242" cy="446.258" rx="143.542" ry="22.307" fill="#943610"/><circle id="Ellipse_2" class="st4" cx="266.422" cy="266.422" r="188.389"/><path id="Path_57" class="st7" d="M424.483 198.211s15.518 33.074 12.783 76.562c0 0-7.94 2.1-26.771-1.026-16.876-2.805-26.656-8.044-26.656-8.044s13.142-33.145 8.911-66.613c.005 0 20.356 3.206 31.733-.879z"/><path id="Path_58" class="st7" d="M380.519 272.845s26.99 12.753 56.086 10.57a233.102 233.102 0 01-12.608 50.191s-32.733 2.83-66.192-17.477c15.648-19.474 22.714-43.284 22.714-43.284z"/><path id="Path_59" class="st8" d="M318.292 153.142c-3.236 6.6-13.679 8.12-23.325 3.392s-14.847-13.912-11.612-20.51 13.677-8.12 23.326-3.393 14.845 13.91 11.611 20.511z"/><path id="Path_60" class="st9" d="M318.291 153.143a7.5 7.5 0 01-.757 1.261c2.619-6.518-2.541-15.265-11.871-19.844-9.02-4.422-18.719-3.4-22.6 2.153.08-.24.177-.474.291-.7 3.239-6.594 13.675-8.108 23.316-3.394 9.663 4.735 14.863 13.929 11.621 20.524z"/><path id="Path_61" class="st8" d="M393.557 172.568c-3.651 5.366-13.419 5.078-21.82-.64s-12.25-14.7-8.6-20.065 13.421-5.078 21.82.64 12.25 14.701 8.6 20.065z"/><path id="Path_62" class="st8" d="M361.417 120.703c-1.668 3.407-10.841 2.333-20.49-2.394s-16.116-11.321-14.446-14.726 10.841-2.333 20.49 2.393 16.117 11.321 14.446 14.727z"/><path id="Path_63" class="st9" d="M393.553 172.561c-.257.37-.543.72-.854 1.047 3.046-5.412-.834-14-8.962-19.533-7.778-5.3-16.721-5.916-20.911-1.707.1-.175.194-.33.311-.5 3.647-5.374 13.423-5.083 21.822.639s12.241 14.7 8.594 20.054z"/><path id="Path_64" class="st9" d="M361.411 120.712a2.73 2.73 0 01-1.047 1.1c.931-3.53-5.393-9.757-14.607-14.257-8.36-4.112-16.371-5.451-19.436-3.511.025-.163.077-.32.155-.466 1.668-3.414 10.843-2.328 20.5 2.386 9.644 4.739 16.103 11.334 14.435 14.748z"/><path id="Path_65" class="st7" d="M90.437 264.297c-3.726-8.7 16.3-166.607 173.123-172.465 11.336-.425 19.983 3.123 21.754 5.858s3.094 12.99-17.867 13.38c-54.722 1.015-139.328 23.025-177.01 153.227z"/></g></g></g></svg>