<svg version="1.1" id="Layer_1" xmlns="http://www.w3.org/2000/svg" x="0" y="0" viewBox="0 0 414 1139" xml:space="preserve"><style>.st1{fill:#c88648}</style><path id="Rectangle_29" fill="#c16f2b" d="M0 0h414v1139H0z"/><path class="st1" d="M414 564.346l-206.993 1.006L414 593.871zm0-550.945L207.003 565.352 414 161.783zm0 233.05L207.003 565.352 414 318.062zm0 262.072l-206.993 56.829L414 538.866zm0-142.336L207.003 565.352 414 412.022zm0 114.656v-34.926L207.005 565.352z"/><path class="st1" d="M207.003 565.353v-.001.001-.001l-.001-.001h.001-.001v-.009L358.209 0H292.51l-85.507 565.331L238.099 0h-62.19l31.092 565.342v.002L121.492 0H55.796L207 565.347v.001l-.005-.008L0 13.38v148.38l206.986 403.566L0 246.443v71.611l206.994 247.287.002.003L0 366.187v45.831l206.997 153.329.001.002-.01-.003L0 445.915v34.928l206.97 84.499L0 508.521v30.342l206.987 26.485.011.004-.015.004L0 564.352v29.525l206.96-28.514L0 620.063v32.075l206.984-86.779.01-.001L0 682.279v39.285l206.997-156.207h.002L0 761.101v55.816L206.998 565.36 0 878.638v98.339l207-411.619h.001L0 1104.542V1139h58.271l148.731-573.643h.001-.001v-.004h.001zm-.001.001zm0 0zm.001 0v.001-.001zm-.003-.001l.002-.001v.001l-.001.001-.001-.001zm0 .001zm0-.004h.001v.001l-.001.002-.001-.002.001-.001v.001-.001zm.001 0zm0 0zm.001.002zm-.001.002zm0 .001zm.002-.003zm-.001 0zm0-.006v.002-.002zm-.001.002v.002-.002zm-.004-.002l.003.004-.003-.002v-.002zm.001.002l.002.002h-.001l-.001-.002zm-.005.002l.005.001.001.002h-.001l-.005-.003zm-.003.007l.008-.004.002.001-.005.003h-.005zm.008 0l.003-.002v.001l-.002.001h-.001zm.003 0H207l.001-.002.001-.001h.001l-.002.003zm.002-.002zm0-.001zm0-.001z"/><path class="st1" d="M414 620.062l-206.992-54.707-.004-.002v-.001h-.001l.001.001v.001l-.001-.001.001.001-.001-.002v.002-.002.004L115.804 1139h63.972l27.227-573.638L234.239 1139h63.97l-91.205-573.643v-.001L355.743 1139H414v-34.476L207.005 565.356l.001.002L414 976.951v-98.336L207.011 565.364 414 816.902v-55.811L207.007 565.358l-.003-.005.003.001L414 721.555v-39.282L207.013 565.357 414 652.138v-32.076zm-206.996-54.708zm-.001-.001v.001-.001zm0 .002zm.001 0zm.001.001l-.001-.002.001.002zm-.001-.002v-.001l.002.002-.002-.001z"/></svg>