<svg version="1.1" id="Layer_1" xmlns="http://www.w3.org/2000/svg" x="0" y="0" viewBox="0 0 243.844 248.872" xml:space="preserve"><style>.st2{fill:#f4e4bc}.st3{fill:#caa678}.st4{fill:#d0241b}.st5,.st7{opacity:.75;fill:#fff;enable-background:new}.st7{opacity:.5;fill:#f3a49d}.st8{fill:#1f1513}.st9{fill:#772122}</style><g id="Rectangle_14"><path d="M-35.078-230.506h120c27.614 0 50 22.386 50 50v94h-220v-94c0-27.614 22.386-50 50-50z" fill="#343434" transform="translate(95 294)"/><path d="M134.922-86.506h-220v-94c0-27.57 22.43-50 50-50h120c27.57 0 50 22.43 50 50v94zm-213-7h206v-87c0-23.71-19.29-43-43-43h-120c-23.71 0-43 19.29-43 43v87z" fill="#fed9a3" transform="translate(95 294)"/></g><g id="Group_12" transform="translate(-107.536 -658.18)"><g id="Bowling_Pins" transform="translate(192.614 888.685)"><g id="Bowling_Pin_5" transform="translate(121.362 72.682)"><g id="Group_7" transform="translate(0 .002)"><path id="Path_36" class="st2" d="M4.312-180.633c10.566-12 16.153-13.227 27.531-26.15s1.771-20.973 1.771-20.973-9.2-8.511-20.58 4.412-11.888 18.62-22.454 30.621-29.558 7.979-48.251 29.21-27.4 50.841-27.4 50.841-.36 4.189 7.544 11.149 12.014 6.072 12.014 6.072 28.27-12.391 46.963-33.622 12.296-39.56 22.862-51.56z"/></g><path id="Path_37" class="st3" d="M-20.007-143.064a136.49 136.49 0 01-10.215 25.306 163.852 163.852 0 01-35.292 22.312s-4.113.884-12.018-6.073a32.16 32.16 0 01-5.41-5.9 201.618 201.618 0 01-.335-10.593c3.415-9.495 11.776-29.789 25.605-45.5 13.28-15.076 26.71-17.422 37.16-21.805 2.579 11.145 5.616 24.132.505 42.253z"/><path id="Path_38" class="st4" d="M20.162-195.353c-2.022 1.71-3.965 3.268-5.971 4.987l-15.206-13.389c1.451-2.206 2.75-4.332 4.187-6.557l16.99 14.959z"/><path id="Path_39" class="st4" d="M-11.378-190.757a22.67 22.67 0 001.957-1.964 101.838 101.838 0 003.166-3.77L7.65-184.248a101.646 101.646 0 00-3.339 3.618 22.772 22.772 0 00-1.7 2.19l-13.989-12.317z"/><path id="Path_40" class="st5" d="M37.134-221.526a11.339 11.339 0 00-2.452-3.258s-9.2-8.511-20.58 4.412-11.89 18.619-22.454 30.616-29.554 7.984-48.252 29.212-27.4 50.839-27.4 50.839c-.009.206.008.411.05.613a7.299 7.299 0 01-1.119-3.578s8.711-29.611 27.4-50.846 37.688-17.208 48.252-29.2 11.077-17.7 22.454-30.623 20.58-4.412 20.58-4.412a11.942 11.942 0 013.521 6.225z"/></g><g id="Bowling_Pin_4" transform="translate(0 72.684)"><g id="Group_8"><path id="Path_41" class="st2" d="M-51.985-180.633c-10.566-12-16.152-13.227-27.531-26.15s-1.776-20.973-1.776-20.973 9.2-8.511 20.58 4.412 11.888 18.62 22.454 30.621 29.558 7.979 48.251 29.21 27.4 50.841 27.4 50.841.36 4.189-7.544 11.149-12.014 6.072-12.014 6.072-28.269-12.391-46.963-33.622-12.292-39.56-22.857-51.56z"/></g><path id="Path_42" class="st4" d="M-67.838-195.355c2.022 1.71 3.965 3.268 5.971 4.987l15.207-13.389c-1.451-2.206-2.751-4.332-4.188-6.557l-16.99 14.959z"/><path id="Path_43" class="st4" d="M-36.296-190.759a22.812 22.812 0 01-1.957-1.964 100.789 100.789 0 01-3.165-3.77l-13.905 12.243a100.732 100.732 0 013.338 3.618 22.772 22.772 0 011.7 2.19l13.989-12.317z"/></g><g id="Bowling_Pin_3" transform="translate(119.591 23.344)"><g id="Group_9" transform="translate(0 .003)"><path id="Path_44" class="st2" d="M-23.747-166.007c5.041-17.881 10.278-21.972 15.707-41.228s-8.68-22.863-8.68-22.863-13.915-4.295-19.344 14.961-3.1 25.481-8.143 43.361-26.959 23.209-35.878 54.843c-8.919 31.634-3.171 67.034-3.171 67.034s1.727 4.57 13.5 7.891 15.637.326 15.637.326 23.393-27.183 32.313-58.818-6.982-47.626-1.941-65.507z"/></g><path id="Path_45" class="st3" d="M-44.346-108.411c0 28.685-10.393 57.127-14.827 67.955a34.385 34.385 0 01-10.578-1.547c-11.776-3.322-13.5-7.891-13.5-7.891s-5.753-35.4 3.172-67.035c5.154-18.291 14.656-27.786 22.725-35.991 6.05 11.024 13.008 23.908 13.008 44.509z"/><path id="Path_46" class="st4" d="M-14.54-189.39c-1.259 2.807-2.512 5.416-3.749 8.224l-22.651-6.389c.412-3.04.706-5.92 1.094-8.973l25.306 7.138z"/><path id="Path_47" class="st4" d="M-45.271-168.731c.416-.991.771-2.007 1.063-3.041a117.382 117.382 0 001.423-5.539l20.719 5.842a119.536 119.536 0 00-1.681 5.467 26.431 26.431 0 00-.681 3.149l-20.843-5.878z"/><path id="Path_48" class="st5" d="M-11.1-226.705a12.082 12.082 0 00-2.83-1.255s-13.915-4.291-19.339 14.962-3.1 25.484-8.148 43.362-26.959 23.21-35.877 54.845c-8.918 31.635-3.167 67.036-3.167 67.036.361.73.859 1.384 1.468 1.925-3.557-2.21-4.256-4.063-4.256-4.063s-5.753-35.4 3.172-67.035 30.837-36.96 35.877-54.845 2.709-24.1 8.141-43.362 19.346-14.962 19.346-14.962a13.71 13.71 0 015.613 3.392z"/></g><g id="Bowling_Pin_2" transform="translate(45.97 23.346)"><g id="Group_10" transform="translate(0 .001)"><path id="Path_49" class="st2" d="M-68.128-166.007c-5.041-17.881-10.278-21.972-15.707-41.228s8.68-22.863 8.68-22.863 13.915-4.295 19.344 14.961 3.1 25.481 8.143 43.361 26.959 23.209 35.878 54.843c8.919 31.634 3.171 67.034 3.171 67.034s-1.727 4.57-13.5 7.891-15.637.326-15.637.326-23.393-27.183-32.313-58.818 6.987-47.626 1.941-65.507z"/></g><path id="Path_50" class="st4" d="M-77.338-189.391c1.259 2.807 2.513 5.416 3.749 8.224l22.659-6.388c-.412-3.04-.706-5.92-1.093-8.973l-25.315 7.137z"/><path id="Path_51" class="st4" d="M-46.602-168.732a26.387 26.387 0 01-1.064-3.041 117.382 117.382 0 01-1.423-5.539l-20.719 5.842a119.536 119.536 0 011.681 5.467c.291 1.035.518 2.086.681 3.149l20.844-5.878z"/><path id="Path_52" class="st5" d="M-32.735-40.457c-3.635-.15-5.025-1.226-5.025-1.226s-23.4-27.18-32.313-58.816 6.986-47.624 1.946-65.51-10.279-21.969-15.7-41.223 8.675-22.868 8.675-22.868c1.957-.495 4-.548 5.981-.157a12.618 12.618 0 00-3.721.4s-14.107 3.607-8.682 22.861 10.664 23.345 15.711 41.23-10.871 33.874-1.946 65.509 32.313 58.816 32.313 58.816c.839.523 1.78.859 2.761.984z"/></g><g id="Bowling_Pin_1" transform="translate(88.33)"><g id="Group_11" transform="translate(0 .002)"><path id="Path_53" class="st2" d="M-39.694-159.952c0-20.611 4.36-26.557 4.36-48.753s-16.151-21.8-16.151-21.8-16.152-.4-16.152 21.8 4.36 28.142 4.36 48.753-21.8 32.9-21.8 69.363 16.8 72.534 16.8 72.534 3.221 4.36 16.8 4.36 16.8-4.36 16.8-4.36 16.8-36.069 16.8-72.534-21.817-48.752-21.817-69.363z"/></g><path id="Path_54" class="st4" d="M-36.899-187.696c-.5 3.377-1.053 6.54-1.528 9.911h-26.119c-.475-3.371-1.029-6.535-1.534-9.911h29.181z"/><path id="Path_55" class="st4" d="M-63.499-156.382c.146-1.184.219-2.375.22-3.568 0-2.277-.053-4.381-.149-6.344h23.883a131.023 131.023 0 00-.148 6.344c.001 1.193.074 2.384.22 3.568h-24.026z"/><path id="Path_56" class="st5" d="M-46.274-229.422c-.371-.021-.577-.014-.577-.014s-16.153-.392-16.153 21.8 4.363 28.143 4.363 48.758-21.8 32.9-21.8 69.359 16.794 72.538 16.794 72.538 1.148 1.554 4.947 2.8c-7.563-1.141-9.58-3.871-9.58-3.871S-85.074-54.121-85.074-90.59s21.8-48.751 21.8-69.359-4.363-26.56-4.363-48.758 16.153-21.8 16.153-21.8c1.788.041 3.554.409 5.21 1.085z"/></g></g><g id="Bowling_Ball" transform="translate(216.63 965.366)"><ellipse id="Ellipse_1" cx="14.967" cy="-66.512" rx="52.75" ry="8.198" fill="#943610"/><circle id="Ellipse_2" class="st4" cx="12.828" cy="-132.599" r="69.23"/><path id="Path_57" class="st7" d="M70.914-157.666a63.217 63.217 0 014.7 28.135s-2.918.772-9.838-.377a34.529 34.529 0 01-9.8-2.956s4.829-12.18 3.275-24.479c.002 0 7.482 1.178 11.663-.323z"/><path id="Path_58" class="st7" d="M54.758-130.239s9.918 4.687 20.611 3.885a85.674 85.674 0 01-4.633 18.445 44.072 44.072 0 01-24.325-6.423 52.721 52.721 0 008.347-15.907z"/><path id="Path_59" class="st8" d="M31.891-174.229c-1.189 2.426-5.027 2.984-8.572 1.247s-5.456-5.112-4.267-7.537 5.026-2.984 8.572-1.247 5.455 5.111 4.267 7.537z"/><path id="Path_60" class="st9" d="M31.889-174.228c-.077.163-.17.318-.278.463.962-2.4-.934-5.61-4.363-7.292-3.315-1.625-6.879-1.248-8.3.791a1.99 1.99 0 01.107-.257c1.19-2.423 5.025-2.98 8.568-1.247s5.457 5.118 4.266 7.542z"/><path id="Path_61" class="st8" d="M59.549-167.089c-1.342 1.972-4.931 1.866-8.019-.235s-4.5-5.4-3.159-7.374 4.932-1.866 8.019.235 4.501 5.403 3.159 7.374z"/><path id="Path_62" class="st8" d="M47.738-186.149c-.613 1.252-3.984.857-7.53-.88s-5.922-4.16-5.309-5.412 3.984-.858 7.53.88 5.923 4.158 5.309 5.412z"/><path id="Path_63" class="st9" d="M59.547-167.093c-.095.136-.2.265-.314.385 1.119-1.989-.307-5.147-3.293-7.178-2.858-1.946-6.145-2.174-7.684-.627.036-.064.071-.121.114-.185 1.34-1.975 4.933-1.868 8.019.235s4.498 5.403 3.158 7.37z"/><path id="Path_64" class="st9" d="M47.736-186.147c-.087.169-.221.31-.385.406.342-1.3-1.982-3.586-5.368-5.239-3.072-1.511-6.016-2-7.143-1.29a.539.539 0 01.057-.171c.613-1.255 3.985-.855 7.535.877s5.917 4.161 5.304 5.417z"/><path id="Path_65" class="st7" d="M-51.844-133.38c-1.369-3.2 5.988-61.226 63.62-63.379 4.166-.156 7.344 1.148 7.994 2.153s1.137 4.774-6.566 4.917c-20.108.373-51.199 8.461-65.048 56.309z"/></g></g></svg>