<svg version="1.1" id="Layer_1" xmlns="http://www.w3.org/2000/svg" x="0" y="0" viewBox="0 0 414 425" xml:space="preserve"><path id="Rectangle_29" fill="#c16f2b" d="M0 0h414v425H0z"/><path d="M410.047 425L212.02 372.664l-.014-.008v-.001l.001-.001-.001.001v-.001.001l-.001.001-.001-.001v-.001.001l-.001-.001h.004L414 400.486v-28.814l-201.99.981L414 346.808v-29.611l-201.993 55.456v-.001L414 290.186v-34.084L212.007 372.651v-.001L414 223.026V178.3L212.008 372.648l.002-.004L414 131.337V61.453L212.016 372.632 403.145 0h-51.39L212.009 372.643l-.003.005-.001-.006L311.672 0h-43.308l-56.36 372.638-.001-.007L232.5 0h-40.994l20.492 372.601L155.644 0h-43.305L212 372.63l.001.021L72.253 0H20.87l191.132 372.652v.001l-.005-.005L0 46.044v73.343l211.99 253.255L0 168.68v46.937l211.996 157.032.003.004L0 250.332v35.77l212 86.552.001.001h-.006L0 314.452v31.077l211.986 27.125L0 371.625v30.24l211.995-29.21h.002L13.948 425h73.199l124.85-52.344-.007.011L119.339 425h23.304l69.343-52.328-.002.002L156.65 425h12.282l43.033-52.297L177.411 425h8.263l26.311-52.321.013-.016L191.905 425h6.525L212 372.661l.001-.001L203.68 425h5.837l2.484-52.34v-.001l.002-.002v.001l.001.005L214.49 425h5.837l-8.319-52.326L225.576 425h6.524l-20.094-52.337L238.327 425h8.264l-34.585-52.339.001.001L255.077 425h12.282l-55.348-52.338.005.002L281.37 425h23.307l-92.643-52.328L336.845 425h73.202zm-198.042-52.345zm-.001.003v-.001.001l.001.001-.001-.001zm0-.002l-.001-.002.001.002zm0 0zm0 0zm-.001-.001zm-.001 0zm-.001.001zm.001 0v.002l-.001.001.001-.003zm0-.002v.001-.001zm-.001 0zm0 .001h-.002.002zm.003-.002l.002-.002v.001l-.002.001zm.002 0h-.001.001zm-.003.001zm-.001 0zm.001 0zm0-.001l.003-.004v.001l-.003.003zm0 0zm0 0zm-.001 0zm0 .001zm.001 0h.001-.001zm.004-.001h-.001.001zm-.001-.001zm.001-.004l-.001.002v-.001l.001-.001zm-.001.001l-.003.004v-.001l.002-.008.001.005zm-.003-.01l.001.003-.002.01.001-.013zm-.001.014zm-.004-.003l.004.003v.001l-.002-.001-.002-.003zm.002.003l.002.001-.002-.001zm.001.001l-.002.001h-.001l.003-.001zm-.003.001zm-.001.001l.002-.001h.003l-.002.005-.003.003-.004.002.004-.009zm-.006.012zm.01-.008zm.001-.002v-.004l.001.002-.001.002zm.004.002v-.002l.002.002h-.002zm.004.001l-.004-.004v-.001l.007.006-.003-.001z" opacity=".3" fill="#d6ba8b"/></svg>