<svg version="1.1" id="Layer_1" xmlns="http://www.w3.org/2000/svg" x="0" y="0" viewBox="0 0 414 546" xml:space="preserve"><style>.st0{fill:#fbb615}</style><path id="Rectangle_31_00000139974403052666990290000004212661066205837238_" class="st0" d="M0 6.198h414v134.401H0z"/><path fill="#fdc035" d="M0 545.834h414V129.299L315.286 6.207H94.988L0 124.656z"/><path fill="none" d="M0 0h414v546H0z"/><path class="st0" d="M203.755 6.198l-27.741 539.636h58.336L207.094 6.198zm-80.363.004L0 193.817v65.929L139.126 6.198zm37.354-.004L0 352.435v132.897L171.175 6.198zm30.758 0L47.52 545.834h62.416l86.57-539.636zm79.644 0L414 266.536v-67.06L286.886 6.198zm-31.387 0L414 495.34V359.835L250.186 6.198zm-24.67 0l85.445 539.636h62.385L219.886 6.198z"/><path fill="#6c0202" d="M414 0H0v7h94.606L0 120.908V133.8L102.452 7h205.379L414 138.4v-13.017L315.677 7H414z"/></svg>