<svg id="Group_42" data-name="Group 42" xmlns="http://www.w3.org/2000/svg" width="1366" height="771" viewBox="0 0 1366 771">
  <g id="desktop-home-background">
    <rect id="Rectangle_12" width="1366" height="768" fill="#c16f2b"/>
    <g id="Group_40" data-name="Group 40">
      <path id="Path_129" data-name="Path 129" d="M994.743,768l-29.51-185.608L974.045,768Z" fill="#d6ba8b" opacity="0.3"/>
      <path id="Path_130" data-name="Path 130" d="M917.11,768l48.123-185.608L893.976,768Z" fill="#d6ba8b" opacity="0.3"/>
      <path id="Path_131" data-name="Path 131" d="M1366,688.313,965.233,582.392,1366,750.417Z" fill="#d6ba8b" opacity="0.3"/>
      <path id="Path_132" data-name="Path 132" d="M871.892,768l93.341-185.608L842.593,768Z" fill="#d6ba8b" opacity="0.3"/>
      <path id="Path_133" data-name="Path 133" d="M812.5,768l152.73-185.608L768.954,768Z" fill="#d6ba8b" opacity="0.3"/>
      <path id="Path_134" data-name="Path 134" d="M1036.491,768,965.233,582.392,1013.359,768Z" fill="#d6ba8b" opacity="0.3"/>
      <path id="Path_135" data-name="Path 135" d="M1161.518,768,965.233,582.392,1117.969,768Z" fill="#d6ba8b" opacity="0.3"/>
      <path id="Path_136" data-name="Path 136" d="M1293.835,768l-328.6-185.608L1211.2,768Z" fill="#d6ba8b" opacity="0.3"/>
      <path id="Path_137" data-name="Path 137" d="M1087.878,768,965.233,582.392,1058.577,768Z" fill="#d6ba8b" opacity="0.3"/>
      <path id="Path_138" data-name="Path 138" d="M956.423,768l8.81-185.608L935.726,768Z" fill="#d6ba8b" opacity="0.3"/>
      <path id="Path_139" data-name="Path 139" d="M666.525,0,965.233,582.392,746.821,0Z" fill="#d6ba8b" opacity="0.3"/>
      <path id="Path_140" data-name="Path 140" d="M178.988,0,965.233,582.392,359.918,0Z" fill="#d6ba8b" opacity="0.3"/>
      <path id="Path_141" data-name="Path 141" d="M477.734,0l487.5,582.392L587.2,0Z" fill="#d6ba8b" opacity="0.3"/>
      <path id="Path_142" data-name="Path 142" d="M1366,285.532V196.79l-400.761,385.6h0L1366,103.616V0h-22.741L965.237,582.387h0L1263.952,0h-80.31L965.235,582.387h0L1121,0h-67.683L965.234,582.387h0L997.268,0H933.2l32.03,582.392v-.005h0v.005l0-.005h0l0,.005,0-.005h0l0,.005,0-.005h0l-.005.005.006-.005h0l-.008,0,.01,0h0l-.013,0,.02,0L1366,637.607V580.441l-400.723,1.945L1366,531.112V472.364L965.253,582.386h-.006L1366,418.777V351.151L965.243,582.387h0Z" fill="#d6ba8b" opacity="0.3"/>
      <path id="Path_143" data-name="Path 143" d="M809.469,0,965.233,582.392,877.149,0Z" fill="#d6ba8b" opacity="0.3"/>
      <path id="Path_144" data-name="Path 144" d="M0,458.887,965.233,582.392,0,317.4Z" fill="#d6ba8b" opacity="0.3"/>
      <path id="Path_145" data-name="Path 145" d="M522.523,768l442.71-185.608L262.984,768Z" fill="#d6ba8b" opacity="0.3"/>
      <path id="Path_146" data-name="Path 146" d="M0,715.386,965.233,582.392,0,577.706Z" fill="#d6ba8b" opacity="0.3"/>
      <path id="Path_147" data-name="Path 147" d="M0,188.324,965.233,582.392,0,25.467Z" fill="#d6ba8b" opacity="0.3"/>
      <path id="Path_148" data-name="Path 148" d="M719.276,768,965.233,582.392,636.642,768Z" fill="#d6ba8b" opacity="0.3"/>
    </g>
  </g>
  <g id="desktop-home-floor" transform="translate(0 713.081)">
    <rect id="Rectangle_23" width="1365.5" height="41.985" transform="translate(0 12.934)" fill="#fbb615"/>
    <path id="Path_120" data-name="Path 120" d="M1311.557,54.919l-44.969-41.841H701.442l-44.97,41.841Z" fill="#fdc035"/>
    <g id="Group_39" data-name="Group 39">
      <path id="Path_121" data-name="Path 121" d="M980.464,13.06,977.58,54.919h14.282L989.029,13.06Z" fill="#fbb615"/>
      <path id="Path_122" data-name="Path 122" d="M774.308,13.06l-36.9,41.859h46.479L814.674,13.06Z" fill="#fbb615"/>
      <path id="Path_123" data-name="Path 123" d="M870.135,13.06,844.09,54.919h32.759L896.891,13.06Z" fill="#fbb615"/>
      <path id="Path_124" data-name="Path 124" d="M949.043,13.06,934.074,54.919h18.8l9-41.859Z" fill="#fbb615"/>
      <path id="Path_125" data-name="Path 125" d="M1153.356,13.06l30.783,41.859h46.479l-36.9-41.859Z" fill="#fbb615"/>
      <path id="Path_126" data-name="Path 126" d="M1072.842,13.06l19.984,41.859h32.758L1099.6,13.06Z" fill="#fbb615"/>
      <path id="Path_127" data-name="Path 127" d="M1009.561,13.06l8.882,41.859h18.287L1021.861,13.06Z" fill="#fbb615"/>
    </g>
    <path id="Path_128" data-name="Path 128" d="M1366,0H.5V17.993H695.964l-41.2,36.926h21.4l40.083-36.926h535.536l40.083,36.926h21.4l-41.2-36.926H1366Z" fill="#6c0202"/>
  </g>
  <g id="Group_39-2" data-name="Group_39" transform="translate(3.59 -14.827)">
    <g id="Rectangle_14" transform="translate(691.951 334.554)">
      <path id="Path_149" data-name="Path 149" d="M153.371,0H423.44A153.371,153.371,0,0,1,576.812,153.371V411.923H0V153.371A153.371,153.371,0,0,1,153.371,0Z" fill="#343434"/>
      <g id="Group_41" data-name="Group 41">
        <path id="Path_150" data-name="Path 150" d="M576.812,411.923H0V153.371C0,68.8,68.8,0,153.371,0H423.44c84.569,0,153.371,68.8,153.371,153.371V411.923ZM18.4,393.519h540V153.371C558.407,78.951,497.861,18.4,423.44,18.4H153.371C78.951,18.4,18.4,78.951,18.4,153.371Z" fill="#fed9a3"/>
      </g>
    </g>
    <g id="Group_12" transform="translate(646.41 93.379)">
      <g id="Bowling_Pins" transform="translate(0 0)">
        <g id="Bowling_Pin_5" transform="translate(337.672 202.226)">
          <g id="Group_7" transform="translate(0 0.006)">
            <path id="Path_36" d="M248.712,138.764c29.4-33.388,44.943-36.8,76.6-72.758s4.928-58.355,4.928-58.355-25.6-23.68-57.259,12.277-33.076,51.808-62.473,85.2-82.24,22.2-134.251,81.272S.007,327.857.007,327.857s-1,11.656,20.989,31.02,33.427,16.9,33.427,16.9S133.079,341.3,185.1,282.224,219.315,172.153,248.712,138.764Z" transform="translate(0 0)" fill="#f4e4bc"/>
          </g>
          <path id="Path_37" d="M180.942,240.531c-7.041,24.948-17.3,48.89-28.425,70.409-47.066,39.672-98.2,62.079-98.2,62.079s-11.444,2.46-33.435-16.9A89.436,89.436,0,0,1,5.832,339.7c-.511-8.826-.872-18.762-.932-29.473,9.5-26.419,32.765-82.884,71.242-126.6,36.95-41.947,74.317-48.473,103.393-60.67C186.713,153.977,195.162,190.113,180.942,240.531Z" transform="translate(0.11 2.765)" fill="#caa678"/>
          <path id="Path_38" d="M287.672,96.571c-5.624,4.76-11.034,9.095-16.612,13.876L228.751,73.193c4.036-6.135,7.652-12.052,11.65-18.242Z" transform="translate(5.141 1.236)" fill="#d0241b"/>
          <path id="Path_39" d="M200.551,108.515A63.263,63.263,0,0,0,206,103.051c3.246-3.689,6.162-7.174,8.808-10.489l38.689,34.065c-2.953,3.042-6.042,6.376-9.29,10.065a63.09,63.09,0,0,0-4.732,6.093Z" transform="translate(4.508 2.081)" fill="#d0241b"/>
          <path id="Path_40" d="M340.038,24.985a31.526,31.526,0,0,0-6.823-9.063S307.61-7.76,275.956,28.2,242.874,80,213.483,113.384c-29.393,33.4-82.23,22.214-134.251,81.279-52,59.084-76.24,141.452-76.24,141.452a6.922,6.922,0,0,0,.139,1.706C-.28,331.414.016,327.864.016,327.864s24.233-82.388,76.24-141.473c52.024-59.064,104.86-47.877,134.251-81.258,29.393-33.4,30.822-49.247,62.473-85.205S330.239,7.651,330.239,7.651A33.225,33.225,0,0,1,340.038,24.985Z" transform="translate(0 0.001)" fill="#fff" opacity="0.75"/>
        </g>
        <g id="Bowling_Pin_4" transform="translate(0 202.231)">
          <g id="Group_8" transform="translate(0 0)">
            <path id="Path_41" d="M92.075,138.764c-29.4-33.388-44.941-36.8-76.6-72.758S10.546,7.651,10.546,7.651s25.6-23.68,57.259,12.277,33.076,51.808,62.473,85.2,82.24,22.2,134.251,81.272,76.248,141.46,76.248,141.46,1,11.656-20.99,31.02-33.428,16.9-33.428,16.9S207.7,341.3,155.686,282.224,121.472,172.153,92.075,138.764Z" transform="translate(-0.001 0)" fill="#f4e4bc"/>
          </g>
          <path id="Path_42" d="M46.916,96.567c5.624,4.76,11.034,9.095,16.612,13.876l42.311-37.254c-4.038-6.135-7.654-12.052-11.656-18.242Z" transform="translate(1.054 1.235)" fill="#d0241b"/>
          <path id="Path_43" d="M133.909,108.509a63.411,63.411,0,0,1-5.445-5.464c-3.246-3.689-6.162-7.174-8.807-10.489L80.968,126.621c2.951,3.042,6.041,6.376,9.288,10.065a63.084,63.084,0,0,1,4.732,6.093Z" transform="translate(1.819 2.08)" fill="#d0241b"/>
        </g>
        <g id="Bowling_Pin_3" transform="translate(332.742 64.949)">
          <g id="Group_9" transform="translate(0 0.009)">
            <path id="Path_44" d="M170.646,179.46c14.026-49.751,28.6-61.135,43.7-114.712S190.2,1.137,190.2,1.137s-38.717-11.95-53.822,41.627-8.628,70.9-22.656,120.645S38.712,227.984,13.893,316,5.072,502.516,5.072,502.516s4.806,12.715,37.575,21.956,43.508.907,43.508.907,65.088-75.634,89.905-163.654S156.62,229.211,170.646,179.46Z" transform="translate(0.002 0)" fill="#f4e4bc"/>
          </g>
          <path id="Path_45" d="M113.329,334.967c0,79.811-28.918,158.946-41.254,189.073-6.783.278-16.343-.613-29.433-4.3C9.877,510.495,5.078,497.781,5.078,497.781S-10.928,399.288,13.9,311.266c14.339-50.894,40.777-77.311,63.229-100.139C93.972,241.808,113.329,277.648,113.329,334.967Z" transform="translate(0.002 4.746)" fill="#caa678"/>
          <path id="Path_46" d="M193.573,112.321c-3.5,7.81-6.989,15.069-10.429,22.882L120.1,117.428c1.146-8.459,1.965-16.472,3.043-24.967Z" transform="translate(2.701 2.079)" fill="#d0241b"/>
          <path id="Path_47" d="M108.322,168.629a73.677,73.677,0,0,0,2.957-8.461c1.551-5.5,2.854-10.613,3.959-15.413l57.648,16.257c-1.564,4.671-3.126,9.714-4.677,15.209a73.461,73.461,0,0,0-1.9,8.762Z" transform="translate(2.436 3.255)" fill="#d0241b"/>
          <path id="Path_48" d="M205.833,10.575a33.581,33.581,0,0,0-7.873-3.491S159.244-4.855,144.151,48.716c-15.113,53.59-8.628,70.9-22.67,120.652-14.022,49.762-75.01,64.578-99.822,152.6s-8.826,186.515-8.826,186.515a17.611,17.611,0,0,0,4.09,5.355c-9.9-6.148-11.84-11.3-11.84-11.3s-16.006-98.493,8.826-186.515C38.719,228,99.708,213.18,113.73,163.417c14.022-49.742,7.537-67.057,22.65-120.652,15.113-53.571,53.828-41.631,53.828-41.631A38.186,38.186,0,0,1,205.833,10.575Z" transform="translate(0.002 0.001)" fill="#fff" opacity="0.75"/>
        </g>
        <g id="Bowling_Pin_2" transform="translate(127.904 64.929)">
          <g id="Group_10" transform="translate(0 0.027)">
            <path id="Path_49" d="M47.163,179.46c-14.026-49.751-28.6-61.135-43.7-114.712S27.61,1.136,27.61,1.136s38.717-11.95,53.822,41.627,8.628,70.9,22.656,120.645S179.1,227.983,203.915,316s8.822,186.513,8.822,186.513-4.806,12.716-37.575,21.956-43.509.907-43.509.907S66.564,449.743,41.747,361.724,61.189,229.211,47.163,179.46Z" transform="translate(0 0.001)" fill="#f4e4bc"/>
          </g>
          <path id="Path_50" d="M21.062,112.316c3.5,7.81,6.992,15.069,10.429,22.882l63.045-17.775c-1.146-8.459-1.963-16.472-3.043-24.967Z" transform="translate(0.474 2.103)" fill="#d0241b"/>
          <path id="Path_51" d="M106.12,168.624a73.232,73.232,0,0,1-2.959-8.461c-1.549-5.5-2.854-10.613-3.959-15.413L41.554,161.007c1.565,4.671,3.126,9.714,4.677,15.209a73.457,73.457,0,0,1,1.9,8.762Z" transform="translate(0.934 3.279)" fill="#d0241b"/>
          <path id="Path_52" d="M145.635,528.782c-10.115-.416-13.982-3.411-13.982-3.411s-65.091-75.62-89.905-163.646,19.437-132.513,5.419-182.271c-14.022-49.742-28.6-61.127-43.693-114.7C-11.64,11.167,27.611,1.13,27.611,1.13A37.918,37.918,0,0,1,44.252.695,35.09,35.09,0,0,0,33.894,1.8S-5.357,11.84,9.737,65.41C24.85,118.981,39.408,130.365,53.45,180.132,67.472,229.875,23.2,274.381,48.031,362.4c24.811,88,89.905,163.646,89.905,163.646S140.162,527.771,145.635,528.782Z" transform="translate(0.001 0.025)" fill="#fff" opacity="0.75"/>
        </g>
        <g id="Bowling_Pin_1" transform="translate(245.763)">
          <g id="Group_11" transform="translate(0 0.005)">
            <path id="Path_53" d="M126.274,196.3c0-57.347,12.13-73.889,12.13-135.647S93.465,0,93.465,0,48.524-1.1,48.524,60.657s12.131,78.3,12.131,135.647S0,287.838,0,389.3,46.726,591.112,46.726,591.112s8.961,12.133,46.733,12.133,46.727-12.133,46.727-12.133S186.914,490.756,186.914,389.3,126.274,253.651,126.274,196.3Z" transform="translate(0.001 -0.001)" fill="#f4e4bc"/>
          </g>
          <path id="Path_54" d="M132.887,116.494c-1.391,9.395-2.929,18.2-4.252,27.576H55.964c-1.323-9.378-2.863-18.182-4.268-27.576Z" transform="translate(1.163 2.617)" fill="#d0241b"/>
          <path id="Path_55" d="M58.719,202.313a81.762,81.762,0,0,0,.613-9.926c0-6.339-.149-12.19-.414-17.65h66.451c-.264,5.46-.409,11.315-.409,17.65a81.762,81.762,0,0,0,.613,9.926Z" transform="translate(1.321 3.926)" fill="#d0241b"/>
          <path id="Path_56" d="M107.964,3.016c-1.032-.06-1.606-.04-1.606-.04S61.415,1.885,61.415,63.628c0,61.758,12.138,78.3,12.138,135.662,0,57.338-60.651,91.531-60.651,192.98C12.9,493.738,59.629,594.1,59.629,594.1s3.193,4.324,13.765,7.8c-21.044-3.17-26.656-10.77-26.656-10.77S.01,490.764.01,389.3c0-101.449,60.651-135.642,60.651-192.98,0-57.361-12.138-73.9-12.138-135.661C48.523-1.088,93.466,0,93.466,0A40.841,40.841,0,0,1,107.964,3.016Z" transform="translate(0.001 -0.002)" fill="#fff" opacity="0.75"/>
        </g>
      </g>
      <g id="Bowling_Ball" transform="translate(146.605 293.138)">
        <ellipse id="Ellipse_1" cx="146.768" cy="22.808" rx="146.768" ry="22.808" transform="translate(51.806 353.693)" fill="#943610"/>
        <circle id="Ellipse_2" cx="192.623" cy="192.623" r="192.623" transform="translate(0 0)" fill="#d0241b"/>
        <path id="Path_57" d="M425.4,198.211s15.867,33.817,13.07,78.283c0,0-8.118,2.147-27.373-1.049-17.255-2.868-27.255-8.225-27.255-8.225s13.437-33.89,9.111-68.11C392.955,199.11,413.764,202.388,425.4,198.211Z" transform="translate(-71.16 -75.332)" fill="#f3a49d" opacity="0.5"/>
        <path id="Path_58" d="M381.03,272.845s27.6,13.04,57.347,10.808a238.341,238.341,0,0,1-12.891,51.319s-33.469,2.894-67.68-17.87C373.8,297.19,381.03,272.845,381.03,272.845Z" transform="translate(-71.745 -73.654)" fill="#f3a49d" opacity="0.5"/>
        <path id="Path_59" d="M319.1,153.665c-3.309,6.748-13.986,8.3-23.849,3.468s-15.181-14.225-11.873-20.971,13.984-8.3,23.85-3.469S322.406,146.915,319.1,153.665Z" transform="translate(-73.44 -76.868)" fill="#1f1513"/>
        <path id="Path_60" d="M319.083,153.666a7.67,7.67,0,0,1-.774,1.289c2.678-6.665-2.6-15.608-12.138-20.29-9.223-4.521-19.14-3.476-23.108,2.2a5.335,5.335,0,0,1,.3-.716c3.312-6.742,13.982-8.29,23.84-3.47C317.081,137.522,322.4,146.923,319.083,153.666Z" transform="translate(-73.425 -76.868)" fill="#772122"/>
        <path id="Path_61" d="M394.272,173.12c-3.733,5.487-13.721,5.192-22.31-.654s-12.525-15.03-8.793-20.516,13.723-5.192,22.31.654S398,167.635,394.272,173.12Z" transform="translate(-71.656 -76.46)" fill="#1f1513"/>
        <path id="Path_62" d="M362.208,121.133c-1.706,3.484-11.085,2.385-20.951-2.448s-16.478-11.575-14.771-15.057,11.085-2.385,20.951,2.447S363.917,117.65,362.208,121.133Z" transform="translate(-72.455 -77.503)" fill="#1f1513"/>
        <path id="Path_63" d="M394.244,173.113a9.026,9.026,0,0,1-.873,1.071c3.114-5.534-.853-14.315-9.163-19.972-7.953-5.419-17.1-6.049-21.381-1.745.1-.179.2-.337.318-.511,3.729-5.495,13.725-5.2,22.312.653S397.973,167.638,394.244,173.113Z" transform="translate(-71.632 -76.46)" fill="#772122"/>
        <path id="Path_64" d="M362.2,121.142a2.792,2.792,0,0,1-1.071,1.125c.952-3.609-5.514-9.976-14.935-14.577-8.548-4.2-16.739-5.574-19.873-3.59a1.488,1.488,0,0,1,.158-.476c1.706-3.491,11.087-2.38,20.961,2.44C357.3,110.908,363.905,117.651,362.2,121.142Z" transform="translate(-72.452 -77.504)" fill="#772122"/>
        <path id="Path_65" d="M90.446,268.174c-3.81-8.9,16.666-170.352,177.014-176.341,11.591-.435,20.432,3.193,22.243,5.99s3.164,13.282-18.269,13.681C215.482,112.541,128.975,135.046,90.446,268.174Z" transform="translate(-77.763 -77.724)" fill="#f3a49d" opacity="0.5"/>
      </g>
    </g>
  </g>
</svg>
