<?xml version="1.0" encoding="utf-8"?>
<!-- Generator: Adobe Illustrator 25.4.1, SVG Export Plug-In . SVG Version: 6.00 Build 0)  -->
<svg version="1.1" id="Layer_1" xmlns="http://www.w3.org/2000/svg" xmlns:xlink="http://www.w3.org/1999/xlink" x="0px" y="0px"
	 viewBox="0 0 1366 54.919" style="enable-background:new 0 0 1366 54.919;" xml:space="preserve">
<style type="text/css">
	.st0{fill:#FBB615;}
	.st1{fill:#FDC035;}
	.st2{fill:#6C0202;}
</style>
<rect id="Rectangle_23" y="12.934" class="st0" width="1365.5" height="41.985"/>
<polygon class="st1" points="1311.557,54.919 1266.588,13.078 701.442,13.078 656.472,54.919 "/>
<g>
	<polygon class="st0" points="980.464,13.06 977.58,54.919 991.862,54.919 989.029,13.06 	"/>
	<polygon class="st0" points="774.308,13.06 737.412,54.919 783.891,54.919 814.674,13.06 	"/>
	<polygon class="st0" points="870.135,13.06 844.09,54.919 876.849,54.919 896.891,13.06 	"/>
	<polygon class="st0" points="949.043,13.06 934.074,54.919 952.875,54.919 961.875,13.06 	"/>
	<polygon class="st0" points="1153.356,13.06 1184.139,54.919 1230.618,54.919 1193.722,13.06 	"/>
	<polygon class="st0" points="1072.842,13.06 1092.826,54.919 1125.584,54.919 1099.597,13.06 	"/>
	<polygon class="st0" points="1009.561,13.06 1018.443,54.919 1036.73,54.919 1021.861,13.06 	"/>
</g>
<polygon class="st2" points="1366,0 0.5,0 0.5,17.993 695.964,17.993 654.761,54.919 676.165,54.919 716.248,17.993 
	1251.784,17.993 1291.867,54.919 1313.271,54.919 1272.069,17.993 1366,17.993 "/>
</svg>
