<?xml version="1.0" encoding="utf-8"?>
<!-- Generator: Adobe Illustrator 25.4.1, SVG Export Plug-In . SVG Version: 6.00 Build 0)  -->
<svg version="1.1" id="Layer_1" xmlns="http://www.w3.org/2000/svg" xmlns:xlink="http://www.w3.org/1999/xlink" x="0px" y="0px"
	 viewBox="0 0 1366 768" style="enable-background:new 0 0 1366 768;" xml:space="preserve">
<style type="text/css">
	.st0{fill:#C16F2B;}
	.st1{fill:#C88648;}
</style>
<g>
	<rect id="Rectangle_24" class="st0" width="1366" height="768"/>
	<g>
		<polygon class="st1" points="757.262,0 870.579,423.688 806.499,0 		"/>
		<polygon class="st1" points="1366,0 1310.926,0 870.579,423.688 1366,56.712 		"/>
		<polygon class="st1" points="847.277,0 870.579,423.688 893.884,0 		"/>
		<polygon class="st1" points="934.66,0 870.579,423.688 983.898,0 		"/>
		<polygon class="st1" points="1145.59,0 870.579,423.688 1225.233,0 		"/>
		<polygon class="st1" points="1029.47,0 870.579,423.688 1087.895,0 		"/>
		<polygon class="st1" points="0,0 0,68.256 870.579,423.688 136.278,0 		"/>
		<polygon class="st1" points="0,312.287 870.579,423.688 0,184.677 		"/>
		<polygon class="st1" points="0,543.636 870.579,423.688 0,419.458 		"/>
		<polygon class="st1" points="1366,137.829 870.579,423.688 1366,221.427 		"/>
		<polygon class="st1" points="515.928,0 870.579,423.688 595.565,0 		"/>
		<polygon class="st1" points="298.598,0 870.579,423.688 430.219,0 		"/>
		<polygon class="st1" points="653.272,0 870.579,423.688 711.686,0 		"/>
		<polygon class="st1" points="697.427,768 870.579,423.688 643.075,768 		"/>
		<polygon class="st1" points="781.309,768 870.579,423.688 738.392,768 		"/>
		<polygon class="st1" points="854.236,768 870.579,423.688 815.841,768 		"/>
		<polygon class="st1" points="925.323,768 870.579,423.688 886.925,768 		"/>
		<polygon class="st1" points="587.256,768 870.579,423.688 506.469,768 		"/>
		<polygon class="st1" points="870.579,423.688 0,653.788 0,768 49.314,768 		"/>
		<polygon class="st1" points="414.313,768 870.579,423.688 261.015,768 		"/>
		<polygon class="st1" points="1002.767,768 870.579,423.688 959.855,768 		"/>
		<polygon class="st1" points="1366,768 1366,703.52 870.579,423.688 1326.856,768 		"/>
		<polygon class="st1" points="1366,554.624 870.579,423.688 1366,631.396 		"/>
		<polygon class="st1" points="1366,421.277 870.579,423.688 1366,491.95 		"/>
		<polygon class="st1" points="1366,287.67 870.579,423.688 1366,360.293 		"/>
		<polygon class="st1" points="1098.093,768 870.579,423.688 1043.737,768 		"/>
		<polygon class="st1" points="1234.699,768 870.579,423.688 1153.911,768 		"/>
	</g>
</g>
</svg>
