<?xml version="1.0" encoding="utf-8"?>
<!-- Generator: Adobe Illustrator 25.4.1, SVG Export Plug-In . SVG Version: 6.00 Build 0)  -->
<svg version="1.1" id="Layer_1" xmlns="http://www.w3.org/2000/svg" xmlns:xlink="http://www.w3.org/1999/xlink" x="0px" y="0px"
	 viewBox="0 0 663.545 677.228" style="enable-background:new 0 0 663.545 677.228;" xml:space="preserve">
<style type="text/css">
	.st0{fill:#343434;}
	.st1{fill:#FED9A3;}
	.st2{fill:#F4E4BC;}
	.st3{fill:#CAA678;}
	.st4{fill:#D0241B;}
	.st5{opacity:0.75;fill:#FFFFFF;enable-background:new    ;}
	.st6{fill:#943610;}
	.st7{opacity:0.5;fill:#F3A49D;enable-background:new    ;}
	.st8{fill:#1F1513;}
	.st9{fill:#772122;}
</style>
<g id="Group_39" transform="translate(-646.409 -93.377)">
	<g id="Rectangle_14" transform="translate(690.95 329.252)">
		<path class="st0" d="M150,0h264.132c82.843,0,150,67.157,150,150v252.868l0,0H0l0,0V150C0,67.157,67.157,0,150,0z"/>
		<g>
			<path class="st1" d="M564.132,402.868H0V150C0,67.29,67.29,0,150,0h264.132c82.71,0,150,67.29,150,150V402.868z M18,384.868
				h528.132V150c0-72.785-59.215-132-132-132H150C77.215,18,18,77.215,18,150V384.868z"/>
		</g>
	</g>
	<g id="Group_12" transform="translate(646.409 93.377)">
		<g id="Bowling_Pins" transform="translate(0 0)">
			<g id="Bowling_Pin_5" transform="translate(330.25 197.783)">
				<g id="Group_7" transform="translate(0 0.005)">
					<path id="Path_36" class="st2" d="M243.245,135.714c28.753-32.654,43.955-35.993,74.917-71.159s4.82-57.072,4.82-57.072
						s-25.036-23.159-56,12.007c-30.964,35.166-32.349,50.669-61.1,83.325s-80.432,21.712-131.3,79.485S0.007,320.65,0.007,320.65
						s-0.98,11.4,20.528,30.338s32.692,16.524,32.692,16.524s76.927-33.719,127.8-91.492S214.494,168.369,243.245,135.714z"/>
				</g>
				<path id="Path_37" class="st3" d="M177.072,237.946c-6.886,24.4-16.915,47.815-27.8,68.861
					c-46.031,38.8-96.037,60.714-96.037,60.714s-11.192,2.406-32.7-16.526c-5.558-4.719-10.504-10.115-14.723-16.061
					c-0.5-8.632-0.853-18.35-0.912-28.825c9.292-25.838,32.045-81.062,69.676-123.815c36.138-41.025,72.683-47.407,101.12-59.336
					C182.716,153.295,190.98,188.637,177.072,237.946z"/>
				<path id="Path_38" class="st4" d="M286.377,95.656c-5.5,4.655-10.791,8.895-16.247,13.571l-41.379-36.435
					c3.947-6,7.484-11.787,11.394-17.841L286.377,95.656z"/>
				<path id="Path_39" class="st4" d="M200.551,108.164c1.882-1.671,3.66-3.456,5.325-5.344c3.175-3.608,6.027-7.016,8.614-10.258
					l37.839,33.316c-2.888,2.975-5.909,6.236-9.086,9.844c-1.663,1.89-3.208,3.88-4.628,5.959L200.551,108.164z"/>
				<path id="Path_40" class="st5" d="M332.563,24.436c-1.67-3.334-3.931-6.337-6.673-8.864c0,0-25.042-23.161-56,12.007
					s-32.355,50.667-61.1,83.313c-28.747,32.666-80.422,21.726-131.3,79.492C26.629,248.169,2.926,328.727,2.926,328.727
					c-0.024,0.559,0.022,1.12,0.136,1.668c-3.336-6.266-3.046-9.738-3.046-9.738s23.7-80.577,74.564-138.363
					c50.88-57.766,102.555-46.825,131.3-79.472c28.747-32.665,30.144-48.164,61.1-83.332s56-12.007,56-12.007
					C327.832,12.021,331.177,17.938,332.563,24.436z"/>
			</g>
			<g id="Bowling_Pin_4" transform="translate(0 197.787)">
				<g id="Group_8">
					<path id="Path_41" class="st2" d="M90.051,135.714C61.298,103.06,46.098,99.721,15.134,64.555s-4.82-57.072-4.82-57.072
						s25.036-23.159,56,12.007c30.964,35.166,32.349,50.669,61.1,83.325s80.432,21.712,131.3,79.485s74.572,138.35,74.572,138.35
						s0.979,11.4-20.529,30.338s-32.693,16.524-32.693,16.524s-76.925-33.719-127.8-91.492S118.802,168.369,90.051,135.714z"/>
				</g>
				<path id="Path_42" class="st4" d="M46.916,95.652c5.5,4.655,10.791,8.895,16.247,13.571l41.381-36.435
					c-3.949-6-7.486-11.787-11.4-17.841L46.916,95.652z"/>
				<path id="Path_43" class="st4" d="M132.745,108.158c-1.882-1.672-3.66-3.456-5.325-5.344c-3.175-3.608-6.027-7.016-8.613-10.258
					l-37.839,33.316c2.886,2.975,5.908,6.236,9.084,9.844c1.663,1.89,3.208,3.88,4.628,5.959L132.745,108.158z"/>
			</g>
			<g id="Bowling_Pin_3" transform="translate(325.43 63.524)">
				<g id="Group_9" transform="translate(0 0.008)">
					<path id="Path_44" class="st2" d="M166.895,175.515c13.718-48.657,27.97-59.791,42.743-112.19S186.017,1.112,186.017,1.112
						s-37.866-11.687-52.639,40.712s-8.438,69.338-22.158,117.993s-73.359,63.155-97.632,149.239S4.96,491.469,4.96,491.469
						s4.7,12.436,36.749,21.473s42.552,0.887,42.552,0.887s63.657-73.971,87.929-160.056S153.177,224.172,166.895,175.515z"/>
				</g>
				<path id="Path_45" class="st3" d="M110.838,332.245c0,78.057-28.282,155.452-40.347,184.917
					c-6.634,0.272-15.984-0.6-28.786-4.208C9.66,503.914,4.966,491.48,4.966,491.48s-15.654-96.328,8.632-182.415
					c14.024-49.775,39.881-75.612,61.839-97.938C91.906,241.134,110.838,276.186,110.838,332.245z"/>
				<path id="Path_46" class="st4" d="M191.958,111.884c-3.426,7.638-6.835,14.738-10.2,22.379L120.1,116.879
					c1.121-8.273,1.922-16.11,2.976-24.418L191.958,111.884z"/>
				<path id="Path_47" class="st4" d="M108.322,168.104c1.131-2.697,2.097-5.461,2.892-8.275c1.517-5.375,2.791-10.38,3.872-15.074
					l56.381,15.9c-1.53,4.568-3.057,9.5-4.574,14.875c-0.792,2.816-1.411,5.678-1.854,8.569L108.322,168.104z"/>
				<path id="Path_48" class="st5" d="M201.308,10.343c-2.41-1.464-4.997-2.611-7.7-3.414c0,0-37.864-11.677-52.626,40.716
					c-14.781,52.412-8.438,69.346-22.172,118c-13.714,48.668-73.361,63.158-97.628,149.244S12.55,497.304,12.55,497.304
					c0.984,1.987,2.342,3.765,4,5.237c-9.679-6.013-11.58-11.056-11.58-11.056s-15.654-96.328,8.632-182.415
					c24.266-86.086,83.914-100.576,97.628-149.245c13.714-48.649,7.371-65.583,22.152-118
					c14.781-52.393,52.645-40.716,52.645-40.716C191.792,2.906,197.036,6.075,201.308,10.343z"/>
			</g>
			<g id="Bowling_Pin_2" transform="translate(125.094 63.528)">
				<g id="Group_10" transform="translate(0 0.003)">
					<path id="Path_49" class="st2" d="M46.126,175.515c-13.718-48.657-27.969-59.791-42.743-112.19s23.62-62.214,23.62-62.214
						s37.866-11.687,52.639,40.712s8.438,69.338,22.158,117.993s73.36,63.155,97.632,149.239s8.628,182.413,8.628,182.413
						s-4.7,12.436-36.749,21.473s-42.553,0.887-42.553,0.887s-63.657-73.971-87.929-160.056S59.844,224.172,46.126,175.515z"/>
				</g>
				<path id="Path_50" class="st4" d="M21.062,111.879c3.426,7.638,6.838,14.738,10.2,22.379l61.659-17.384
					c-1.121-8.273-1.92-16.11-2.976-24.418L21.062,111.879z"/>
				<path id="Path_51" class="st4" d="M104.701,168.099c-1.133-2.697-2.099-5.46-2.894-8.275c-1.515-5.375-2.791-10.38-3.872-15.074
					l-56.381,15.9c1.531,4.568,3.057,9.5,4.574,14.875c0.792,2.816,1.411,5.678,1.854,8.569L104.701,168.099z"/>
				<path id="Path_52" class="st5" d="M142.434,517.158c-9.893-0.407-13.675-3.336-13.675-3.336s-63.66-73.958-87.929-160.049
					s19.01-129.6,5.3-178.264C32.416,126.86,18.159,115.726,3.397,63.333C-11.384,10.921,27.004,1.105,27.004,1.105
					c5.326-1.346,10.885-1.491,16.275-0.426c-3.412-0.144-6.826,0.221-10.13,1.085c0,0-38.388,9.815-23.626,62.208
					c14.781,52.393,29.019,63.527,42.752,112.2c13.714,48.649-29.581,92.177-5.3,178.264
					c24.266,86.068,87.929,160.049,87.929,160.049S137.081,516.169,142.434,517.158z"/>
			</g>
			<g id="Bowling_Pin_1" transform="translate(240.362)">
				<g id="Group_11" transform="translate(0 0.006)">
					<path id="Path_53" class="st2" d="M123.498,191.989c0-56.086,11.863-72.265,11.863-132.665S91.41,0.002,91.41,0.002
						S47.457-1.076,47.457,59.324s11.864,76.579,11.864,132.665s-59.322,89.522-59.322,188.75s45.7,197.379,45.7,197.379
						s8.764,11.866,45.706,11.866s45.7-11.866,45.7-11.866s45.7-98.15,45.7-197.379S123.498,248.075,123.498,191.989z"/>
				</g>
				<path id="Path_54" class="st4" d="M131.102,116.494c-1.36,9.188-2.865,17.8-4.159,26.97H55.87
					c-1.294-9.172-2.8-17.782-4.174-26.97H131.102z"/>
				<path id="Path_55" class="st4" d="M58.719,201.707c0.397-3.221,0.597-6.463,0.6-9.708c0-6.2-0.146-11.922-0.405-17.262h64.99
					c-0.258,5.34-0.4,11.066-0.4,17.262c0.003,3.245,0.203,6.487,0.6,9.708H58.719z"/>
				<path id="Path_56" class="st5" d="M105.591,2.95c-1.009-0.059-1.571-0.039-1.571-0.039S60.065,1.844,60.065,62.229
					c0,60.4,11.871,76.581,11.871,132.68c0,56.078-59.318,89.519-59.318,188.738c0,99.237,45.7,197.39,45.7,197.39
					s3.123,4.229,13.462,7.624c-20.581-3.1-26.07-10.533-26.07-10.533s-45.7-98.152-45.7-197.39
					c0-99.219,59.318-132.66,59.318-188.738c0-56.1-11.871-72.275-11.871-132.679c0-60.385,43.955-59.318,43.955-59.318
					C96.278,0.113,101.084,1.112,105.591,2.95z"/>
			</g>
		</g>
		<g id="Bowling_Ball" transform="translate(65.35 208.663)">
			<ellipse id="Ellipse_1" class="st6" cx="272.242" cy="446.258" rx="143.542" ry="22.307"/>
			<circle id="Ellipse_2" class="st4" cx="266.422" cy="266.422" r="188.389"/>
			<path id="Path_57" class="st7" d="M424.483,198.211c0,0,15.518,33.074,12.783,76.562c0,0-7.94,2.1-26.771-1.026
				c-16.876-2.805-26.656-8.044-26.656-8.044s13.142-33.145,8.911-66.613C392.755,199.09,413.106,202.296,424.483,198.211z"/>
			<path id="Path_58" class="st7" d="M380.519,272.845c0,0,26.99,12.753,56.086,10.57c-2.327,17.146-6.555,33.98-12.608,50.191
				c0,0-32.733,2.83-66.192-17.477C373.453,296.655,380.519,272.845,380.519,272.845z"/>
			<path id="Path_59" class="st8" d="M318.292,153.142c-3.236,6.6-13.679,8.12-23.325,3.392s-14.847-13.912-11.612-20.51
				s13.677-8.12,23.326-3.393S321.526,146.541,318.292,153.142z"/>
			<path id="Path_60" class="st9" d="M318.291,153.143c-0.21,0.444-0.464,0.866-0.757,1.261c2.619-6.518-2.541-15.265-11.871-19.844
				c-9.02-4.422-18.719-3.4-22.6,2.153c0.08-0.24,0.177-0.474,0.291-0.7c3.239-6.594,13.675-8.108,23.316-3.394
				C316.333,137.354,321.533,146.548,318.291,153.143z"/>
			<path id="Path_61" class="st8" d="M393.557,172.568c-3.651,5.366-13.419,5.078-21.82-0.64s-12.25-14.7-8.6-20.065
				s13.421-5.078,21.82,0.64S397.207,167.204,393.557,172.568z"/>
			<path id="Path_62" class="st8" d="M361.417,120.703c-1.668,3.407-10.841,2.333-20.49-2.394s-16.116-11.321-14.446-14.726
				s10.841-2.333,20.49,2.393S363.088,117.297,361.417,120.703z"/>
			<path id="Path_63" class="st9" d="M393.553,172.561c-0.257,0.37-0.543,0.72-0.854,1.047c3.046-5.412-0.834-14-8.962-19.533
				c-7.778-5.3-16.721-5.916-20.911-1.707c0.1-0.175,0.194-0.33,0.311-0.5c3.647-5.374,13.423-5.083,21.822,0.639
				S397.2,167.207,393.553,172.561z"/>
			<path id="Path_64" class="st9" d="M361.411,120.712c-0.238,0.458-0.601,0.84-1.047,1.1c0.931-3.53-5.393-9.757-14.607-14.257
				c-8.36-4.112-16.371-5.451-19.436-3.511c0.025-0.163,0.077-0.32,0.155-0.466c1.668-3.414,10.843-2.328,20.5,2.386
				C356.62,110.703,363.079,117.298,361.411,120.712z"/>
			<path id="Path_65" class="st7" d="M90.437,264.297c-3.726-8.7,16.3-166.607,173.123-172.465
				c11.336-0.425,19.983,3.123,21.754,5.858s3.094,12.99-17.867,13.38C212.725,112.085,128.119,134.095,90.437,264.297z"/>
		</g>
	</g>
</g>
</svg>
