<?xml version="1.0" encoding="utf-8"?>
<!-- Generator: Adobe Illustrator 25.4.1, SVG Export Plug-In . SVG Version: 6.00 Build 0)  -->
<svg version="1.1" id="Layer_1" xmlns="http://www.w3.org/2000/svg" xmlns:xlink="http://www.w3.org/1999/xlink" x="0px" y="0px"
	 viewBox="0 0 1366 768" style="enable-background:new 0 0 1366 768;" xml:space="preserve">
<style type="text/css">
	.st0{fill:#C16F2B;}
	.st1{opacity:0.3;fill:#D6BA8B;enable-background:new    ;}
</style>
<g>
	<rect id="Rectangle_12" class="st0" width="1366" height="768"/>
	<g>
		<polygon class="st1" points="994.743,768 965.233,582.392 974.045,768 		"/>
		<polygon class="st1" points="917.11,768 965.233,582.392 893.976,768 		"/>
		<polygon class="st1" points="1366,688.313 965.233,582.392 1366,750.417 		"/>
		<polygon class="st1" points="871.892,768 965.233,582.392 842.593,768 		"/>
		<polygon class="st1" points="812.503,768 965.233,582.392 768.954,768 		"/>
		<polygon class="st1" points="1036.491,768 965.233,582.392 1013.359,768 		"/>
		<polygon class="st1" points="1161.518,768 965.233,582.392 1117.969,768 		"/>
		<polygon class="st1" points="1293.835,768 965.233,582.392 1211.197,768 		"/>
		<polygon class="st1" points="1087.878,768 965.233,582.392 1058.577,768 		"/>
		<polygon class="st1" points="956.423,768 965.233,582.392 935.726,768 		"/>
		<polygon class="st1" points="666.525,0 965.233,582.392 746.821,0 		"/>
		<polygon class="st1" points="178.988,0 965.233,582.392 359.918,0 		"/>
		<polygon class="st1" points="477.734,0 965.233,582.392 587.203,0 		"/>
		<polygon class="st1" points="1366,285.532 1366,196.79 965.239,582.387 965.238,582.387 1366,103.616 1366,0 1343.259,0 
			965.237,582.387 965.236,582.387 1263.952,0 1183.642,0 965.235,582.387 965.235,582.387 1121,0 1053.317,0 965.234,582.387 
			965.233,582.387 997.268,0 933.203,0 965.233,582.392 965.233,582.387 965.234,582.387 965.233,582.392 965.235,582.387 
			965.235,582.387 965.233,582.392 965.236,582.387 965.236,582.387 965.233,582.392 965.237,582.387 965.238,582.387 
			965.233,582.392 965.239,582.387 965.241,582.388 965.233,582.392 965.243,582.388 965.246,582.388 965.233,582.392 
			965.253,582.389 1366,637.607 1366,580.441 965.277,582.386 1366,531.112 1366,472.364 965.253,582.386 965.247,582.387 
			1366,418.777 1366,351.151 965.243,582.387 965.24,582.387 		"/>
		<polygon class="st1" points="809.469,0 965.233,582.392 877.149,0 		"/>
		<polygon class="st1" points="0,458.887 965.233,582.392 0,317.402 		"/>
		<polygon class="st1" points="522.523,768 965.233,582.392 262.984,768 		"/>
		<polygon class="st1" points="0,715.386 965.233,582.392 0,577.706 		"/>
		<polygon class="st1" points="0,188.324 965.233,582.392 0,25.467 		"/>
		<polygon class="st1" points="719.276,768 965.233,582.392 636.642,768 		"/>
	</g>
</g>
</svg>
