<?xml version="1.0" encoding="utf-8"?>
<!-- Generator: Adobe Illustrator 25.4.1, SVG Export Plug-In . SVG Version: 6.00 Build 0)  -->
<svg version="1.1" id="Layer_1" xmlns="http://www.w3.org/2000/svg" xmlns:xlink="http://www.w3.org/1999/xlink" x="0px" y="0px"
	 viewBox="0 0 414 1139" style="enable-background:new 0 0 414 1139;" xml:space="preserve">
<style type="text/css">
	.st0{fill:#C16F2B;}
	.st1{fill:#C88648;}
</style>
<g>
	<rect id="Rectangle_29" class="st0" width="414" height="1139"/>
	<g>
		<polygon class="st1" points="414,564.346 207.007,565.352 414,593.871 		"/>
		<polygon class="st1" points="414,13.401 207.003,565.352 414,161.783 		"/>
		<polygon class="st1" points="414,246.451 207.003,565.352 414,318.062 		"/>
		<polygon class="st1" points="414,508.523 207.007,565.352 414,538.866 		"/>
		<polygon class="st1" points="414,366.187 207.003,565.352 414,412.022 		"/>
		<polygon class="st1" points="414,480.843 414,445.917 207.005,565.352 		"/>
		<path class="st1" d="M207.003,565.353L207.003,565.353L207.003,565.353L207.003,565.353l0-0.001L207.003,565.353v-0.001v0l0,0l0,0
			l0,0l0,0l0,0l0,0l-0.001-0.001l0,0l0.001,0l-0.001,0v-0.001l0-0.008L358.209,0H292.51l-85.507,565.331L238.099,0h-62.19
			l31.092,565.342l0,0.002L121.492,0H55.796l151.204,565.347l0,0.001l-0.005-0.008L0,13.38v148.38l206.986,403.566L0,246.443v71.611
			l206.994,247.287l0.002,0.003L0,366.187v45.831l206.997,153.329l0.001,0.002l-0.01-0.003L0,445.915v34.928l206.97,84.499
			L0,508.521v30.342l206.987,26.485l0.011,0.004l-0.015,0.004L0,564.352v29.525l206.96-28.514L0,620.063v32.075l206.984-86.779
			l0.01-0.001L0,682.279v39.285l206.997-156.207l0.002,0L0,761.101v55.816l206.998-251.557L0,878.638v98.339l207-411.619l0.001,0
			L0,1104.542V1139h58.271l148.731-573.643l0.001,0h-0.001l0-0.002l0,0l0,0l0,0l0,0v0V565.353L207.003,565.353L207.003,565.353
			L207.003,565.353L207.003,565.353L207.003,565.353L207.003,565.353L207.003,565.353z M207.002,565.354L207.002,565.354
			L207.002,565.354L207.002,565.354z M207.002,565.354L207.002,565.354L207.002,565.354L207.002,565.354L207.002,565.354
			L207.002,565.354z M207.003,565.354L207.003,565.354l0,0.001L207.003,565.354L207.003,565.354z M207,565.353l0.002-0.001v0v0l0,0
			l0,0.001l-0.001,0.001l0,0L207,565.353L207,565.353z M207,565.354L207,565.354L207,565.354L207,565.354z M207,565.35l0.001,0l0,0
			l0,0.001v0L207,565.353l-0.001-0.002L207,565.35l0,0.001L207,565.35z M207.001,565.35L207.001,565.35L207.001,565.35
			L207.001,565.35z M207.001,565.35L207.001,565.35L207.001,565.35L207.001,565.35z M207.002,565.352L207.002,565.352
			L207.002,565.352L207.002,565.352z M207.001,565.354L207.001,565.354L207.001,565.354L207.001,565.354z M207.001,565.355
			L207.001,565.355L207.001,565.355L207.001,565.355z M207.003,565.352L207.003,565.352L207.003,565.352L207.003,565.352
			L207.003,565.352z M207.002,565.352L207.002,565.352L207.002,565.352L207.002,565.352z M207.002,565.346v0.002V565.346
			L207.002,565.346z M207.001,565.348l0,0.002L207.001,565.348L207.001,565.348z M206.997,565.346l0.003,0.004v0l-0.003-0.002
			L206.997,565.346z M206.998,565.348L207,565.35v0l-0.001,0L206.998,565.348z M206.993,565.35l0.005,0.001l0.001,0.002l-0.001,0
			L206.993,565.35z M206.99,565.357l0.008-0.004l0.002,0.001l0,0l-0.005,0.003H206.99z M206.998,565.357l0.003-0.002l0,0l0,0.001
			l-0.002,0.001H206.998z M207.001,565.357H207l0.001-0.002l0.001-0.001l0.001,0L207.001,565.357z M207.003,565.355L207.003,565.355
			L207.003,565.355L207.003,565.355z M207.003,565.354L207.003,565.354L207.003,565.354L207.003,565.354z M207.003,565.353
			L207.003,565.353L207.003,565.353L207.003,565.353L207.003,565.353z"/>
		<path class="st1" d="M414,620.062l-206.992-54.707l-0.004-0.002v-0.001v0l-0.001,0l0.001,0.001l0,0.001l-0.001-0.001l0.001,0.001
			v0l0,0l-0.001-0.002l0,0.002l0,0l0-0.002l0,0.001h0h0l0,0.001l0,0l0,0v0.002L115.804,1139h63.972l27.227-573.638L234.239,1139
			h63.97l-91.205-573.643l0-0.001l0,0L355.743,1139H414v-34.476L207.005,565.356l0.001,0.002L414,976.951v-98.336L207.011,565.364
			L414,816.902v-55.811L207.007,565.358l-0.003-0.005l0.003,0.001L414,721.555v-39.282L207.013,565.357L414,652.138V620.062z
			 M207.004,565.354L207.004,565.354L207.004,565.354L207.004,565.354z M207.003,565.353L207.003,565.353L207.003,565.353l0,0.001v0
			L207.003,565.353z M207.003,565.355L207.003,565.355L207.003,565.355L207.003,565.355z M207.004,565.355L207.004,565.355
			L207.004,565.355L207.004,565.355z M207.005,565.356L207.005,565.356l-0.001-0.002v0l0,0L207.005,565.356z M207.004,565.354
			L207.004,565.354l0-0.001l0.002,0.002L207.004,565.354z"/>
	</g>
</g>
</svg>
