<?xml version="1.0" encoding="utf-8"?>
<!-- Generator: Adobe Illustrator 25.4.1, SVG Export Plug-In . SVG Version: 6.00 Build 0)  -->
<svg version="1.1" id="Layer_1" xmlns="http://www.w3.org/2000/svg" xmlns:xlink="http://www.w3.org/1999/xlink" x="0px" y="0px"
	 viewBox="0 0 243.844 248.872" style="enable-background:new 0 0 243.844 248.872;" xml:space="preserve">
<style type="text/css">
	.st0{fill:#343434;}
	.st1{fill:#FED9A3;}
	.st2{fill:#F4E4BC;}
	.st3{fill:#CAA678;}
	.st4{fill:#D0241B;}
	.st5{opacity:0.75;fill:#FFFFFF;enable-background:new    ;}
	.st6{fill:#943610;}
	.st7{opacity:0.5;fill:#F3A49D;enable-background:new    ;}
	.st8{fill:#1F1513;}
	.st9{fill:#772122;}
</style>
<g id="Rectangle_14" transform="translate(95 294)">
	<g>
		<path class="st0" d="M-35.078-230.506h120c27.614,0,50,22.386,50,50v94l0,0h-220l0,0v-94
			C-85.078-208.12-62.692-230.506-35.078-230.506z"/>
	</g>
	<g>
		<path class="st1" d="M134.922-86.506h-220v-94c0-27.57,22.43-50,50-50h120c27.57,0,50,22.43,50,50V-86.506z M-78.078-93.506h206
			v-87c0-23.71-19.29-43-43-43h-120c-23.71,0-43,19.29-43,43V-93.506z"/>
	</g>
</g>
<g id="Group_12" transform="translate(-107.536 -658.18)">
	<g id="Bowling_Pins" transform="translate(192.614 888.685)">
		<g id="Bowling_Pin_5" transform="translate(121.362 72.682)">
			<g id="Group_7" transform="translate(0 0.002)">
				<path id="Path_36" class="st2" d="M4.312-180.633c10.566-12,16.153-13.227,27.531-26.15s1.771-20.973,1.771-20.973
					s-9.2-8.511-20.58,4.412S1.146-204.724-9.42-192.723s-29.558,7.979-48.251,29.21s-27.4,50.841-27.4,50.841
					s-0.36,4.189,7.544,11.149s12.014,6.072,12.014,6.072s28.27-12.391,46.963-33.622S-6.254-168.633,4.312-180.633z"/>
			</g>
			<path id="Path_37" class="st3" d="M-20.007-143.064c-2.551,8.755-5.973,17.233-10.215,25.306
				c-10.764,8.912-22.625,16.41-35.292,22.312c0,0-4.113,0.884-12.018-6.073c-2.042-1.734-3.86-3.716-5.41-5.9
				c-0.185-3.172-0.314-6.744-0.335-10.593c3.415-9.495,11.776-29.789,25.605-45.5c13.28-15.076,26.71-17.422,37.16-21.805
				C-17.933-174.172-14.896-161.185-20.007-143.064z"/>
			<path id="Path_38" class="st4" d="M20.162-195.353c-2.022,1.71-3.965,3.268-5.971,4.987l-15.206-13.389
				c1.451-2.206,2.75-4.332,4.187-6.557L20.162-195.353z"/>
			<path id="Path_39" class="st4" d="M-11.378-190.757c0.692-0.614,1.345-1.27,1.957-1.964c1.167-1.326,2.215-2.578,3.166-3.77
				L7.65-184.248c-1.061,1.093-2.171,2.292-3.339,3.618c-0.611,0.695-1.178,1.426-1.7,2.19L-11.378-190.757z"/>
			<path id="Path_40" class="st5" d="M37.134-221.526c-0.614-1.225-1.444-2.329-2.452-3.258c0,0-9.2-8.511-20.58,4.412
				s-11.89,18.619-22.454,30.616s-29.554,7.984-48.252,29.212s-27.4,50.839-27.4,50.839c-0.009,0.206,0.008,0.411,0.05,0.613
				c-0.678-1.075-1.064-2.308-1.119-3.578c0,0,8.711-29.611,27.4-50.846s37.688-17.208,48.252-29.2s11.077-17.7,22.454-30.623
				s20.58-4.412,20.58-4.412C35.395-226.084,36.624-223.912,37.134-221.526z"/>
		</g>
		<g id="Bowling_Pin_4" transform="translate(0 72.684)">
			<g id="Group_8">
				<path id="Path_41" class="st2" d="M-51.985-180.633c-10.566-12-16.152-13.227-27.531-26.15s-1.776-20.973-1.776-20.973
					s9.2-8.511,20.58,4.412s11.888,18.62,22.454,30.621s29.558,7.979,48.251,29.21s27.4,50.841,27.4,50.841s0.36,4.189-7.544,11.149
					s-12.014,6.072-12.014,6.072s-28.269-12.391-46.963-33.622S-41.42-168.633-51.985-180.633z"/>
			</g>
			<path id="Path_42" class="st4" d="M-67.838-195.355c2.022,1.71,3.965,3.268,5.971,4.987l15.207-13.389
				c-1.451-2.206-2.751-4.332-4.188-6.557L-67.838-195.355z"/>
			<path id="Path_43" class="st4" d="M-36.296-190.759c-0.691-0.614-1.345-1.27-1.957-1.964c-1.167-1.326-2.215-2.578-3.165-3.77
				l-13.905,12.243c1.061,1.093,2.171,2.292,3.338,3.618c0.611,0.695,1.178,1.426,1.7,2.19L-36.296-190.759z"/>
		</g>
		<g id="Bowling_Pin_3" transform="translate(119.591 23.344)">
			<g id="Group_9" transform="translate(0 0.003)">
				<path id="Path_44" class="st2" d="M-23.747-166.007c5.041-17.881,10.278-21.972,15.707-41.228s-8.68-22.863-8.68-22.863
					s-13.915-4.295-19.344,14.961s-3.1,25.481-8.143,43.361s-26.959,23.209-35.878,54.843c-8.919,31.634-3.171,67.034-3.171,67.034
					s1.727,4.57,13.5,7.891s15.637,0.326,15.637,0.326s23.393-27.183,32.313-58.818S-28.788-148.126-23.747-166.007z"/>
			</g>
			<path id="Path_45" class="st3" d="M-44.346-108.411c0,28.685-10.393,57.127-14.827,67.955c-3.585,0.039-7.154-0.483-10.578-1.547
				c-11.776-3.322-13.5-7.891-13.5-7.891s-5.753-35.4,3.172-67.035c5.154-18.291,14.656-27.786,22.725-35.991
				C-51.304-141.896-44.346-129.012-44.346-108.411z"/>
			<path id="Path_46" class="st4" d="M-14.54-189.39c-1.259,2.807-2.512,5.416-3.749,8.224l-22.651-6.389
				c0.412-3.04,0.706-5.92,1.094-8.973L-14.54-189.39z"/>
			<path id="Path_47" class="st4" d="M-45.271-168.731c0.416-0.991,0.771-2.007,1.063-3.041c0.557-1.975,1.026-3.814,1.423-5.539
				l20.719,5.842c-0.562,1.679-1.123,3.491-1.681,5.467c-0.291,1.035-0.518,2.086-0.681,3.149L-45.271-168.731z"/>
			<path id="Path_48" class="st5" d="M-11.1-226.705c-0.886-0.538-1.837-0.96-2.83-1.255c0,0-13.915-4.291-19.339,14.962
				s-3.1,25.484-8.148,43.362s-26.959,23.21-35.877,54.845c-8.918,31.635-3.167,67.036-3.167,67.036
				c0.361,0.73,0.859,1.384,1.468,1.925c-3.557-2.21-4.256-4.063-4.256-4.063s-5.753-35.4,3.172-67.035s30.837-36.96,35.877-54.845
				s2.709-24.1,8.141-43.362s19.346-14.962,19.346-14.962C-14.595-229.437-12.669-228.273-11.1-226.705z"/>
		</g>
		<g id="Bowling_Pin_2" transform="translate(45.97 23.346)">
			<g id="Group_10" transform="translate(0 0.001)">
				<path id="Path_49" class="st2" d="M-68.128-166.007c-5.041-17.881-10.278-21.972-15.707-41.228s8.68-22.863,8.68-22.863
					s13.915-4.295,19.344,14.961s3.1,25.481,8.143,43.361s26.959,23.209,35.878,54.843c8.919,31.634,3.171,67.034,3.171,67.034
					s-1.727,4.57-13.5,7.891s-15.637,0.326-15.637,0.326S-61.149-68.865-70.069-100.5S-63.082-148.126-68.128-166.007z"/>
			</g>
			<path id="Path_50" class="st4" d="M-77.338-189.391c1.259,2.807,2.513,5.416,3.749,8.224l22.659-6.388
				c-0.412-3.04-0.706-5.92-1.093-8.973L-77.338-189.391z"/>
			<path id="Path_51" class="st4" d="M-46.602-168.732c-0.416-0.991-0.772-2.007-1.064-3.041c-0.557-1.975-1.026-3.814-1.423-5.539
				l-20.719,5.842c0.562,1.679,1.123,3.491,1.681,5.467c0.291,1.035,0.518,2.086,0.681,3.149L-46.602-168.732z"/>
			<path id="Path_52" class="st5" d="M-32.735-40.457c-3.635-0.15-5.025-1.226-5.025-1.226s-23.4-27.18-32.313-58.816
				s6.986-47.624,1.946-65.51s-10.279-21.969-15.7-41.223s8.675-22.868,8.675-22.868c1.957-0.495,4-0.548,5.981-0.157
				c-1.253-0.052-2.507,0.082-3.721,0.4c0,0-14.107,3.607-8.682,22.861s10.664,23.345,15.711,41.23s-10.871,33.874-1.946,65.509
				s32.313,58.816,32.313,58.816C-34.657-40.918-33.716-40.582-32.735-40.457z"/>
		</g>
		<g id="Bowling_Pin_1" transform="translate(88.33)">
			<g id="Group_11" transform="translate(0 0.002)">
				<path id="Path_53" class="st2" d="M-39.694-159.952c0-20.611,4.36-26.557,4.36-48.753s-16.151-21.8-16.151-21.8
					s-16.152-0.4-16.152,21.8s4.36,28.142,4.36,48.753s-21.8,32.9-21.8,69.363c0,36.463,16.8,72.534,16.8,72.534
					s3.221,4.36,16.8,4.36s16.8-4.36,16.8-4.36s16.8-36.069,16.8-72.534S-39.694-139.341-39.694-159.952z"/>
			</g>
			<path id="Path_54" class="st4" d="M-36.899-187.696c-0.5,3.377-1.053,6.54-1.528,9.911h-26.119
				c-0.475-3.371-1.029-6.535-1.534-9.911H-36.899z"/>
			<path id="Path_55" class="st4" d="M-63.499-156.382c0.146-1.184,0.219-2.375,0.22-3.568c0-2.277-0.053-4.381-0.149-6.344h23.883
				c-0.095,1.962-0.148,4.067-0.148,6.344c0.001,1.193,0.074,2.384,0.22,3.568H-63.499z"/>
			<path id="Path_56" class="st5" d="M-46.274-229.422c-0.371-0.021-0.577-0.014-0.577-0.014s-16.153-0.392-16.153,21.8
				s4.363,28.143,4.363,48.758s-21.8,32.9-21.8,69.359s16.794,72.538,16.794,72.538s1.148,1.554,4.947,2.8
				c-7.563-1.141-9.58-3.871-9.58-3.871S-85.074-54.121-85.074-90.59s21.8-48.751,21.8-69.359s-4.363-26.56-4.363-48.758
				s16.153-21.8,16.153-21.8C-49.696-230.466-47.93-230.098-46.274-229.422z"/>
		</g>
	</g>
	<g id="Bowling_Ball" transform="translate(216.63 965.366)">
		<ellipse id="Ellipse_1" class="st6" cx="14.967" cy="-66.512" rx="52.75" ry="8.198"/>
		<circle id="Ellipse_2" class="st4" cx="12.828" cy="-132.599" r="69.23"/>
		<path id="Path_57" class="st7" d="M70.914-157.666c3.69,8.898,5.297,18.521,4.7,28.135c0,0-2.918,0.772-9.838-0.377
			c-3.395-0.493-6.698-1.489-9.8-2.956c0,0,4.829-12.18,3.275-24.479C59.253-157.343,66.733-156.165,70.914-157.666z"/>
		<path id="Path_58" class="st7" d="M54.758-130.239c0,0,9.918,4.687,20.611,3.885c-0.855,6.301-2.409,12.488-4.633,18.445
			c-8.56,0.268-17.013-1.964-24.325-6.423C50.083-119.118,52.906-124.498,54.758-130.239z"/>
		<path id="Path_59" class="st8" d="M31.891-174.229c-1.189,2.426-5.027,2.984-8.572,1.247s-5.456-5.112-4.267-7.537
			s5.026-2.984,8.572-1.247S33.079-176.655,31.891-174.229z"/>
		<path id="Path_60" class="st9" d="M31.889-174.228c-0.077,0.163-0.17,0.318-0.278,0.463c0.962-2.4-0.934-5.61-4.363-7.292
			c-3.315-1.625-6.879-1.248-8.3,0.791c0.03-0.088,0.065-0.174,0.107-0.257c1.19-2.423,5.025-2.98,8.568-1.247
			S33.08-176.652,31.889-174.228z"/>
		<path id="Path_61" class="st8" d="M59.549-167.089c-1.342,1.972-4.931,1.866-8.019-0.235s-4.5-5.4-3.159-7.374
			s4.932-1.866,8.019,0.235S60.891-169.06,59.549-167.089z"/>
		<path id="Path_62" class="st8" d="M47.738-186.149c-0.613,1.252-3.984,0.857-7.53-0.88s-5.922-4.16-5.309-5.412
			s3.984-0.858,7.53,0.88S48.352-187.403,47.738-186.149z"/>
		<path id="Path_63" class="st9" d="M59.547-167.093c-0.095,0.136-0.2,0.265-0.314,0.385c1.119-1.989-0.307-5.147-3.293-7.178
			c-2.858-1.946-6.145-2.174-7.684-0.627c0.036-0.064,0.071-0.121,0.114-0.185c1.34-1.975,4.933-1.868,8.019,0.235
			S60.887-169.06,59.547-167.093z"/>
		<path id="Path_64" class="st9" d="M47.736-186.147c-0.087,0.169-0.221,0.31-0.385,0.406c0.342-1.3-1.982-3.586-5.368-5.239
			c-3.072-1.511-6.016-2-7.143-1.29c0.009-0.06,0.029-0.118,0.057-0.171c0.613-1.255,3.985-0.855,7.535,0.877
			S48.349-187.403,47.736-186.147z"/>
		<path id="Path_65" class="st7" d="M-51.844-133.38c-1.369-3.2,5.988-61.226,63.62-63.379c4.166-0.156,7.344,1.148,7.994,2.153
			s1.137,4.774-6.566,4.917C-6.904-189.316-37.995-181.228-51.844-133.38z"/>
	</g>
</g>
</svg>
