<?xml version="1.0" encoding="utf-8"?>
<!-- Generator: Adobe Illustrator 25.4.1, SVG Export Plug-In . SVG Version: 6.00 Build 0)  -->
<svg version="1.1" id="Layer_1" xmlns="http://www.w3.org/2000/svg" xmlns:xlink="http://www.w3.org/1999/xlink" x="0px" y="0px"
	 viewBox="0 0 414 546" style="enable-background:new 0 0 414 546;" xml:space="preserve">
<style type="text/css">
	.st0{fill:#FBB615;}
	.st1{fill:#FDC035;}
	.st2{fill:none;}
	.st3{fill:#6C0202;}
</style>
<g>
	
		<rect id="Rectangle_31_00000139974403052666990290000004212661066205837238_" y="6.198" class="st0" width="414" height="134.401"/>
	<polygon class="st1" points="0,545.834 414,545.834 414,129.299 315.286,6.207 94.988,6.207 0,124.656 	"/>
	<rect class="st2" width="414" height="546"/>
	<g>
		<g>
			<polygon class="st0" points="203.755,6.198 176.014,545.834 234.35,545.834 207.094,6.198 			"/>
			<polygon class="st0" points="123.392,6.202 0,193.817 0,259.746 139.126,6.198 			"/>
			<polygon class="st0" points="160.746,6.198 0,352.435 0,485.332 171.175,6.198 			"/>
			<polygon class="st0" points="191.504,6.198 47.52,545.834 109.936,545.834 196.506,6.198 			"/>
			<polygon class="st0" points="271.148,6.198 414,266.536 414,199.476 286.886,6.198 			"/>
			<polygon class="st0" points="239.761,6.198 414,495.34 414,359.835 250.186,6.198 			"/>
			<polygon class="st0" points="215.091,6.198 300.536,545.834 362.921,545.834 219.886,6.198 			"/>
		</g>
	</g>
	<polygon class="st3" points="414,0 0,0 0,7 94.606,7 0,120.908 0,133.8 102.452,7 307.831,7 414,138.4 414,125.383 315.677,7 
		414,7 	"/>
</g>
</svg>
