<?xml version="1.0" encoding="utf-8"?>
<!-- Generator: Adobe Illustrator 25.4.1, SVG Export Plug-In . SVG Version: 6.00 Build 0)  -->
<svg version="1.1" id="Layer_1" xmlns="http://www.w3.org/2000/svg" xmlns:xlink="http://www.w3.org/1999/xlink" x="0px" y="0px"
	 viewBox="0 0 414 425" style="enable-background:new 0 0 414 425;" xml:space="preserve">
<style type="text/css">
	.st0{fill:#C16F2B;}
	.st1{opacity:0.3;fill:#D6BA8B;enable-background:new    ;}
</style>
<rect id="Rectangle_29" class="st0" width="414" height="425"/>
<path class="st1" d="M410.047,425L212.02,372.664l-0.014-0.008l0-0.001l0.001-0.001l-0.001,0.001l0-0.001l0,0.001l-0.001,0.001
	l-0.001-0.001l0-0.001l0,0.001l-0.001-0.001v0l0.001,0v0v0l0.002,0l0,0l0,0l0,0l0.001,0l0,0l0,0L414,400.486v-28.814l-201.99,0.981
	L414,346.808v-29.611l-201.993,55.456l0-0.001L414,290.186v-34.084L212.007,372.651v0l0-0.001L414,223.026V178.3L212.008,372.648
	l0.002-0.004L414,131.337V61.453L212.016,372.632L403.145,0h-51.39L212.009,372.643l-0.003,0.005l-0.001-0.006L311.672,0h-43.308
	l-56.36,372.638l-0.001-0.007L232.5,0h-40.994l20.492,372.601L155.644,0h-43.305l99.661,372.63l0.001,0.021L72.253,0H20.87
	l191.132,372.652l0,0.001l-0.005-0.005L0,46.044v73.343l211.99,253.255L0,168.68v46.937l211.996,157.032l0.003,0.004L0,250.332
	v35.77l212,86.552l0.001,0.001l-0.006,0L0,314.452v31.077l211.986,27.125L0,371.625v30.24l211.995-29.21l0.002,0L13.948,425h73.199
	l124.85-52.344l-0.007,0.011L119.339,425h23.304l69.343-52.328l-0.002,0.002L156.65,425h12.282l43.033-52.297L177.411,425h8.263
	l26.311-52.321l0.013-0.016L191.905,425h6.525L212,372.661l0.001-0.001L203.68,425h5.837l2.484-52.34l0,0l0,0l0-0.001l0.002-0.002
	l0,0.001l0.001,0.005L214.49,425h5.837l-8.319-52.326L225.576,425h6.524l-20.094-52.337v0L238.327,425h8.264l-34.585-52.339
	l0.001,0.001L255.077,425h12.282l-55.348-52.338l0.005,0.002L281.37,425h23.307l-92.643-52.328L336.845,425H410.047z
	 M212.005,372.655L212.005,372.655L212.005,372.655L212.005,372.655z M212.004,372.658l0-0.001l0,0L212.004,372.658l0.001,0.001
	L212.004,372.658z M212.004,372.656L212.004,372.656l-0.001-0.002l0,0L212.004,372.656L212.004,372.656z M212.004,372.656
	L212.004,372.656L212.004,372.656L212.004,372.656L212.004,372.656z M212.004,372.656L212.004,372.656L212.004,372.656
	L212.004,372.656L212.004,372.656z M212.003,372.655L212.003,372.655L212.003,372.655L212.003,372.655L212.003,372.655z
	 M212.002,372.655L212.002,372.655L212.002,372.655L212.002,372.655L212.002,372.655z M212.001,372.656L212.001,372.656
	L212.001,372.656L212.001,372.656L212.001,372.656z M212.002,372.656l0,0.002l-0.001,0.001L212.002,372.656L212.002,372.656z
	 M212.002,372.654L212.002,372.654l0,0.001L212.002,372.654L212.002,372.654z M212.001,372.654L212.001,372.654L212.001,372.654
	L212.001,372.654L212.001,372.654z M212.001,372.655L212.001,372.655l-0.002,0L212.001,372.655L212.001,372.655z M212.004,372.653
	L212.004,372.653l0.002-0.002l0,0.001L212.004,372.653z M212.006,372.653L212.006,372.653l-0.001,0L212.006,372.653z
	 M212.003,372.654L212.003,372.654L212.003,372.654L212.003,372.654L212.003,372.654z M212.002,372.654L212.002,372.654
	L212.002,372.654L212.002,372.654L212.002,372.654z M212.003,372.654L212.003,372.654L212.003,372.654L212.003,372.654
	L212.003,372.654z M212.003,372.653L212.003,372.653l0.003-0.004l0,0.001L212.003,372.653z M212.003,372.653L212.003,372.653
	L212.003,372.653L212.003,372.653L212.003,372.653z M212.003,372.653L212.003,372.653L212.003,372.653L212.003,372.653
	L212.003,372.653L212.003,372.653z M212.002,372.653L212.002,372.653L212.002,372.653L212.002,372.653z M212.002,372.654
	L212.002,372.654L212.002,372.654L212.002,372.654L212.002,372.654z M212.003,372.654L212.003,372.654l0.001,0L212.003,372.654
	L212.003,372.654z M212.007,372.653L212.007,372.653l-0.001,0L212.007,372.653L212.007,372.653L212.007,372.653z M212.006,372.652
	L212.006,372.652L212.006,372.652L212.006,372.652z M212.007,372.648l-0.001,0.002l0,0l0-0.001L212.007,372.648z M212.006,372.649
	l-0.003,0.004l0,0l0-0.001l0.002-0.008L212.006,372.649z M212.003,372.639l0.001,0.003l-0.002,0.01l0,0L212.003,372.639z
	 M212.002,372.653L212.002,372.653L212.002,372.653L212.002,372.653z M211.998,372.65l0.004,0.003l0,0.001L212,372.653
	L211.998,372.65z M212,372.653l0.002,0.001v0L212,372.653L212,372.653z M212.001,372.654l-0.002,0.001l-0.001,0l0,0L212.001,372.654
	L212.001,372.654z M211.998,372.655L211.998,372.655L211.998,372.655L211.998,372.655z M211.997,372.656l0.002-0.001l0.003,0
	L212,372.66l-0.003,0.003l-0.004,0.002L211.997,372.656z M211.991,372.668L211.991,372.668L211.991,372.668L211.991,372.668z
	 M212.001,372.66L212.001,372.66L212.001,372.66L212.001,372.66z M212.002,372.658v-0.002l0,0l0,0v0v0v0v0v0l0-0.002l0.001,0.002
	L212.002,372.658z M212.006,372.66L212.006,372.66l0-0.002l0.002,0.002L212.006,372.66z M212.01,372.661l-0.004-0.004l0-0.001
	l0.007,0.006L212.01,372.661z"/>
</svg>
